<svg width="34" height="40" viewBox="0 0 34 40" fill="none" xmlns="http://www.w3.org/2000/svg">
<path d="M32.9644 31.1511C32.3599 32.5476 31.6443 33.8331 30.8153 35.015C29.6852 36.6262 28.7599 37.7415 28.0469 38.3608C26.9415 39.3774 25.7571 39.898 24.4889 39.9276C23.5784 39.9276 22.4804 39.6685 21.2023 39.143C19.92 38.6199 18.7416 38.3608 17.6641 38.3608C16.534 38.3608 15.322 38.6199 14.0256 39.143C12.7273 39.6685 11.6814 39.9424 10.8817 39.9696C9.66552 40.0214 8.45329 39.4859 7.24328 38.3608C6.47099 37.6872 5.505 36.5325 4.34779 34.8966C3.1062 33.1497 2.08544 31.1239 1.28576 28.8145C0.429326 26.3199 0 23.9044 0 21.5658C0 18.8869 0.57885 16.5764 1.73828 14.6403C2.64949 13.0851 3.86172 11.8583 5.37892 10.9577C6.89612 10.0571 8.53545 9.59816 10.3009 9.5688C11.2669 9.5688 12.5336 9.8676 14.1078 10.4548C15.6776 11.0441 16.6855 11.3429 17.1274 11.3429C17.4578 11.3429 18.5775 10.9935 20.4757 10.2969C22.2707 9.65097 23.7857 9.3835 25.0268 9.48886C28.3898 9.76027 30.9164 11.086 32.5967 13.4744C29.589 15.2969 28.1011 17.8494 28.1307 21.1238C28.1579 23.6744 29.0832 25.7968 30.9016 27.4821C31.7257 28.2642 32.6461 28.8687 33.67 29.2981C33.448 29.9421 33.2136 30.5589 32.9644 31.1511ZM25.2513 0.799687C25.2513 2.79879 24.521 4.66535 23.0652 6.39302C21.3084 8.44688 19.1835 9.63369 16.8792 9.44642C16.8498 9.20659 16.8328 8.95417 16.8328 8.68893C16.8328 6.76979 17.6683 4.71593 19.1519 3.03662C19.8926 2.18636 20.8347 1.47938 21.9771 0.915407C23.117 0.359848 24.1953 0.0526128 25.2094 0C25.239 0.267249 25.2513 0.534541 25.2513 0.799687Z" fill="white"/>
</svg>
