<svg width="72" height="43" viewBox="0 0 72 43" fill="none" xmlns="http://www.w3.org/2000/svg">
<path d="M20.2645 15.6168C20.2645 16.5017 20.3602 17.2191 20.5276 17.7453C20.7189 18.2714 20.9581 18.8454 21.2929 19.4672C21.4125 19.6585 21.4603 19.8498 21.4603 20.0172C21.4603 20.2564 21.3168 20.4955 21.0059 20.7347L19.4992 21.7392C19.284 21.8826 19.0687 21.9544 18.8774 21.9544C18.6383 21.9544 18.3991 21.8348 18.1599 21.6196C17.8251 21.2608 17.5381 20.8782 17.299 20.4955C17.0598 20.089 16.8207 19.6346 16.5576 19.0845C14.6922 21.2848 12.3485 22.3849 9.52647 22.3849C7.51757 22.3849 5.91523 21.8109 4.74338 20.663C3.57152 19.515 2.97363 17.9844 2.97363 16.0712C2.97363 14.0384 3.6911 12.3882 5.14994 11.1446C6.60878 9.901 8.54593 9.2792 11.0092 9.2792C11.8224 9.2792 12.6594 9.35095 13.5443 9.47052C14.4291 9.5901 15.3379 9.78142 16.2945 9.99666V8.25083C16.2945 6.43326 15.9119 5.16574 15.1705 4.42436C14.4052 3.68298 13.1138 3.32425 11.2723 3.32425C10.4353 3.32425 9.5743 3.41991 8.68943 3.63515C7.80456 3.85039 6.9436 4.11346 6.10656 4.44828C5.72391 4.61568 5.43693 4.71135 5.26952 4.75918C5.10211 4.80701 4.98253 4.83092 4.88687 4.83092C4.55205 4.83092 4.38464 4.59177 4.38464 4.08954V2.91769C4.38464 2.53504 4.43248 2.24805 4.55205 2.08064C4.67163 1.91324 4.88687 1.74583 5.22169 1.57842C6.05873 1.14794 7.06318 0.78921 8.23503 0.502225C9.40689 0.191324 10.6505 0.0478309 11.9658 0.0478309C14.8118 0.0478309 16.8924 0.693548 18.2317 1.98498C19.547 3.27642 20.2167 5.23749 20.2167 7.86819V15.6168H20.2645ZM10.5548 19.2519C11.344 19.2519 12.1572 19.1085 13.0181 18.8215C13.8791 18.5345 14.6444 18.0083 15.2901 17.2909C15.6727 16.8365 15.9597 16.3343 16.1032 15.7603C16.2467 15.1863 16.3424 14.4928 16.3424 13.6796V12.6752C15.6488 12.5078 14.9074 12.3643 14.1422 12.2686C13.3769 12.173 12.6355 12.1251 11.8941 12.1251C10.2918 12.1251 9.11991 12.436 8.3307 13.0818C7.54149 13.7275 7.15884 14.6363 7.15884 15.832C7.15884 16.9561 7.44582 17.7931 8.04371 18.3671C8.61768 18.965 9.45472 19.2519 10.5548 19.2519ZM29.7589 21.8348C29.3285 21.8348 29.0415 21.7631 28.8502 21.5957C28.6588 21.4522 28.4914 21.1174 28.3479 20.663L22.7278 2.17631C22.5843 1.698 22.5126 1.3871 22.5126 1.21969C22.5126 0.837041 22.7039 0.621802 23.0865 0.621802H25.4302C25.8846 0.621802 26.1955 0.693548 26.363 0.860957C26.5543 1.00445 26.6978 1.33927 26.8413 1.79366L30.8591 17.6257L34.5899 1.79366C34.7094 1.31535 34.8529 1.00445 35.0443 0.860957C35.2356 0.717464 35.5704 0.621802 36.0009 0.621802H37.9141C38.3685 0.621802 38.6794 0.693548 38.8707 0.860957C39.0621 1.00445 39.2295 1.33927 39.3251 1.79366L43.1038 17.817L47.2411 1.79366C47.3846 1.31535 47.552 1.00445 47.7195 0.860957C47.9108 0.717464 48.2217 0.621802 48.6522 0.621802H50.8763C51.2589 0.621802 51.4742 0.813126 51.4742 1.21969C51.4742 1.33927 51.4503 1.45884 51.4264 1.60234C51.4024 1.74583 51.3546 1.93715 51.2589 2.20022L45.4953 20.6869C45.3518 21.1652 45.1844 21.4761 44.9931 21.6196C44.8018 21.7631 44.4909 21.8587 44.0843 21.8587H42.0276C41.5732 21.8587 41.2623 21.787 41.071 21.6196C40.8796 21.4522 40.7122 21.1413 40.6166 20.663L36.9097 5.23749L33.2267 20.639C33.1071 21.1174 32.9636 21.4283 32.7723 21.5957C32.581 21.7631 32.2462 21.8348 31.8157 21.8348H29.7589ZM60.4903 22.4805C59.2467 22.4805 58.0031 22.337 56.8073 22.0501C55.6116 21.7631 54.6789 21.4522 54.0571 21.0934C53.6744 20.8782 53.4113 20.639 53.3157 20.4238C53.22 20.2086 53.1722 19.9694 53.1722 19.7542V18.5345C53.1722 18.0323 53.3635 17.7931 53.7222 17.7931C53.8657 17.7931 54.0092 17.817 54.1527 17.8648C54.2962 17.9127 54.5114 18.0083 54.7506 18.104C55.5637 18.4627 56.4486 18.7497 57.3813 18.941C58.3379 19.1324 59.2706 19.228 60.2272 19.228C61.7339 19.228 62.9058 18.965 63.7189 18.4388C64.532 17.9127 64.9625 17.1474 64.9625 16.1669C64.9625 15.4972 64.7473 14.9472 64.3168 14.4928C63.8863 14.0384 63.0732 13.6318 61.9013 13.2492L58.4336 12.173C56.6878 11.6229 55.3963 10.8098 54.6071 9.73359C53.8179 8.68131 53.4113 7.50945 53.4113 6.26585C53.4113 5.2614 53.6266 4.37653 54.0571 3.61123C54.4875 2.84594 55.0615 2.17631 55.779 1.65017C56.4964 1.10011 57.3096 0.693548 58.2662 0.406563C59.2228 0.119577 60.2272 0 61.2795 0C61.8057 0 62.3557 0.0239155 62.8819 0.0956618C63.4319 0.167408 63.9341 0.26307 64.4364 0.358732C64.9147 0.478309 65.3691 0.597886 65.7995 0.741379C66.23 0.884872 66.5648 1.02836 66.804 1.17186C67.1388 1.36318 67.378 1.5545 67.5215 1.76974C67.6649 1.96107 67.7367 2.22414 67.7367 2.55895V3.68298C67.7367 4.18521 67.5454 4.44828 67.1866 4.44828C66.9953 4.44828 66.6844 4.35261 66.2778 4.16129C64.9147 3.53949 63.3841 3.22859 61.6861 3.22859C60.3229 3.22859 59.2467 3.44383 58.5053 3.89822C57.7639 4.35261 57.3813 5.04616 57.3813 6.0267C57.3813 6.69633 57.6205 7.2703 58.0988 7.72469C58.5771 8.17909 59.4619 8.63348 60.7295 9.04004L64.1255 10.1162C65.8474 10.6663 67.091 11.4316 67.8324 12.4121C68.5737 13.3927 68.9325 14.5167 68.9325 15.7603C68.9325 16.7887 68.7172 17.7214 68.3107 18.5345C67.8802 19.3476 67.3062 20.0651 66.5648 20.639C65.8235 21.2369 64.9386 21.6674 63.9102 21.9783C62.834 22.3131 61.71 22.4805 60.4903 22.4805Z" fill="white"/>
<path fill-rule="evenodd" clip-rule="evenodd" d="M65.0099 34.1034C57.1417 39.9149 45.7101 42.9999 35.8808 42.9999C22.1055 42.9999 9.69342 37.906 0.318558 29.4399C-0.422821 28.7703 0.246812 27.8615 1.13168 28.3876C11.2718 34.2708 23.7796 37.8342 36.7179 37.8342C45.447 37.8342 55.0371 36.0166 63.8619 32.2858C65.1773 31.6879 66.3013 33.1468 65.0099 34.1034Z" fill="white"/>
<path fill-rule="evenodd" clip-rule="evenodd" d="M68.2861 30.3726C67.2816 29.0812 61.6376 29.7508 59.0786 30.0617C58.3133 30.1574 58.1937 29.4878 58.8873 28.9855C63.3834 25.8287 70.7733 26.7375 71.6342 27.7898C72.4952 28.866 71.3951 36.2558 67.1859 39.7953C66.5402 40.3454 65.9184 40.0584 66.2054 39.3409C67.162 36.9733 69.2905 31.6402 68.2861 30.3726Z" fill="white"/>
</svg>
