<svg width="370" height="92" viewBox="0 0 370 92" fill="none" xmlns="http://www.w3.org/2000/svg">
<rect width="370" height="91.4722" rx="23" fill="url(#paint0_radial_1091_1224)"/>
<path d="M90.756 40.012V35.56H98.512V56H93.528V40.012H90.756ZM101.955 41.328C102.03 39.3307 102.683 37.7907 103.915 36.708C105.147 35.6253 106.818 35.084 108.927 35.084C110.327 35.084 111.522 35.3267 112.511 35.812C113.519 36.2973 114.275 36.96 114.779 37.8C115.302 38.64 115.563 39.5827 115.563 40.628C115.563 41.86 115.255 42.868 114.639 43.652C114.023 44.4173 113.305 44.94 112.483 45.22V45.332C113.547 45.6867 114.387 46.2747 115.003 47.096C115.619 47.9173 115.927 48.972 115.927 50.26C115.927 51.4173 115.657 52.444 115.115 53.34C114.593 54.2173 113.818 54.908 112.791 55.412C111.783 55.916 110.579 56.168 109.179 56.168C106.939 56.168 105.147 55.6173 103.803 54.516C102.478 53.4147 101.778 51.7533 101.703 49.532H106.351C106.37 50.3533 106.603 51.0067 107.051 51.492C107.499 51.9587 108.153 52.192 109.011 52.192C109.739 52.192 110.299 51.9867 110.691 51.576C111.102 51.1467 111.307 50.5867 111.307 49.896C111.307 49 111.018 48.356 110.439 47.964C109.879 47.5533 108.974 47.348 107.723 47.348H106.827V43.456H107.723C108.675 43.456 109.441 43.2973 110.019 42.98C110.617 42.644 110.915 42.056 110.915 41.216C110.915 40.544 110.729 40.0213 110.355 39.648C109.982 39.2747 109.469 39.088 108.815 39.088C108.106 39.088 107.574 39.3027 107.219 39.732C106.883 40.1613 106.687 40.6933 106.631 41.328H101.955ZM130.612 56L124.004 47.32V56H119.216V36.344H124.004V44.968L130.556 36.344H136.184L128.568 45.976L136.464 56H130.612ZM152.936 48.356H148.064V53.34H143.528V48.356H138.656V44.072H143.528V39.06H148.064V44.072H152.936V48.356ZM176.704 42.14C176.2 41.1693 175.5 40.4413 174.604 39.956C173.708 39.452 172.672 39.2 171.496 39.2C170.208 39.2 169.06 39.4893 168.052 40.068C167.044 40.6467 166.25 41.468 165.672 42.532C165.112 43.596 164.832 44.828 164.832 46.228C164.832 47.628 165.112 48.8693 165.672 49.952C166.25 51.016 167.044 51.8373 168.052 52.416C169.06 52.9947 170.208 53.284 171.496 53.284C173.232 53.284 174.641 52.7987 175.724 51.828C176.806 50.8573 177.469 49.5413 177.712 47.88H170.404V45.332H181.128V47.824C180.922 49.336 180.381 50.7267 179.504 51.996C178.645 53.2653 177.516 54.2827 176.116 55.048C174.734 55.7947 173.194 56.168 171.496 56.168C169.666 56.168 167.996 55.748 166.484 54.908C164.972 54.0493 163.768 52.864 162.872 51.352C161.994 49.84 161.556 48.132 161.556 46.228C161.556 44.324 161.994 42.616 162.872 41.104C163.768 39.592 164.972 38.416 166.484 37.576C168.014 36.7173 169.685 36.288 171.496 36.288C173.568 36.288 175.406 36.8013 177.012 37.828C178.636 38.836 179.812 40.2733 180.54 42.14H176.704ZM185.9 38.528C185.321 38.528 184.836 38.332 184.444 37.94C184.052 37.548 183.856 37.0627 183.856 36.484C183.856 35.9053 184.052 35.42 184.444 35.028C184.836 34.636 185.321 34.44 185.9 34.44C186.46 34.44 186.936 34.636 187.328 35.028C187.72 35.42 187.916 35.9053 187.916 36.484C187.916 37.0627 187.72 37.548 187.328 37.94C186.936 38.332 186.46 38.528 185.9 38.528ZM187.468 40.572V56H184.276V40.572H187.468ZM195.383 43.176V51.716C195.383 52.2947 195.513 52.7147 195.775 52.976C196.055 53.2187 196.521 53.34 197.175 53.34H199.135V56H196.615C195.177 56 194.076 55.664 193.311 54.992C192.545 54.32 192.163 53.228 192.163 51.716V43.176H190.343V40.572H192.163V36.736H195.383V40.572H199.135V43.176H195.383ZM217.617 36.54V56H214.425V47.488H205.269V56H202.077V36.54H205.269V44.884H214.425V36.54H217.617ZM235.791 40.572V56H232.599V54.18C232.095 54.8147 231.432 55.3187 230.611 55.692C229.808 56.0467 228.949 56.224 228.035 56.224C226.821 56.224 225.729 55.972 224.759 55.468C223.807 54.964 223.051 54.2173 222.491 53.228C221.949 52.2387 221.679 51.044 221.679 49.644V40.572H224.843V49.168C224.843 50.5493 225.188 51.6133 225.879 52.36C226.569 53.088 227.512 53.452 228.707 53.452C229.901 53.452 230.844 53.088 231.535 52.36C232.244 51.6133 232.599 50.5493 232.599 49.168V40.572H235.791ZM243.194 42.868C243.736 42.1213 244.473 41.5147 245.406 41.048C246.358 40.5627 247.413 40.32 248.57 40.32C249.933 40.32 251.165 40.6467 252.266 41.3C253.368 41.9533 254.236 42.8867 254.87 44.1C255.505 45.2947 255.822 46.6667 255.822 48.216C255.822 49.7653 255.505 51.156 254.87 52.388C254.236 53.6013 253.358 54.5533 252.238 55.244C251.137 55.916 249.914 56.252 248.57 56.252C247.376 56.252 246.312 56.0187 245.378 55.552C244.464 55.0853 243.736 54.488 243.194 53.76V56H240.002V35.28H243.194V42.868ZM252.574 48.216C252.574 47.152 252.35 46.2373 251.902 45.472C251.473 44.688 250.894 44.1 250.166 43.708C249.457 43.2973 248.692 43.092 247.87 43.092C247.068 43.092 246.302 43.2973 245.574 43.708C244.865 44.1187 244.286 44.716 243.838 45.5C243.409 46.284 243.194 47.208 243.194 48.272C243.194 49.336 243.409 50.2693 243.838 51.072C244.286 51.856 244.865 52.4533 245.574 52.864C246.302 53.2747 247.068 53.48 247.87 53.48C248.692 53.48 249.457 53.2747 250.166 52.864C250.894 52.4347 251.473 51.8187 251.902 51.016C252.35 50.2133 252.574 49.28 252.574 48.216ZM272.664 56.196C271.358 56.196 270.182 55.972 269.136 55.524C268.091 55.0573 267.27 54.404 266.672 53.564C266.075 52.724 265.776 51.744 265.776 50.624H269.192C269.267 51.464 269.594 52.1547 270.172 52.696C270.77 53.2373 271.6 53.508 272.664 53.508C273.766 53.508 274.624 53.2467 275.24 52.724C275.856 52.1827 276.164 51.492 276.164 50.652C276.164 49.9987 275.968 49.4667 275.576 49.056C275.203 48.6453 274.727 48.328 274.148 48.104C273.588 47.88 272.804 47.6373 271.796 47.376C270.527 47.04 269.491 46.704 268.688 46.368C267.904 46.0133 267.232 45.472 266.672 44.744C266.112 44.016 265.832 43.0453 265.832 41.832C265.832 40.712 266.112 39.732 266.672 38.892C267.232 38.052 268.016 37.408 269.024 36.96C270.032 36.512 271.199 36.288 272.524 36.288C274.41 36.288 275.95 36.764 277.144 37.716C278.358 38.6493 279.03 39.9373 279.16 41.58H275.632C275.576 40.8707 275.24 40.264 274.624 39.76C274.008 39.256 273.196 39.004 272.188 39.004C271.274 39.004 270.527 39.2373 269.948 39.704C269.37 40.1707 269.08 40.8427 269.08 41.72C269.08 42.3173 269.258 42.812 269.612 43.204C269.986 43.5773 270.452 43.876 271.012 44.1C271.572 44.324 272.338 44.5667 273.308 44.828C274.596 45.1827 275.642 45.5373 276.444 45.892C277.266 46.2467 277.956 46.7973 278.516 47.544C279.095 48.272 279.384 49.252 279.384 50.484C279.384 51.4733 279.114 52.4067 278.572 53.284C278.05 54.1613 277.275 54.8707 276.248 55.412C275.24 55.9347 274.046 56.196 272.664 56.196ZM286.875 43.176V51.716C286.875 52.2947 287.005 52.7147 287.267 52.976C287.547 53.2187 288.013 53.34 288.667 53.34H290.627V56H288.107C286.669 56 285.568 55.664 284.803 54.992C284.037 54.32 283.655 53.228 283.655 51.716V43.176H281.835V40.572H283.655V36.736H286.875V40.572H290.627V43.176H286.875ZM292.505 48.216C292.505 46.6667 292.822 45.2947 293.457 44.1C294.11 42.9053 294.987 41.9813 296.089 41.328C297.209 40.656 298.441 40.32 299.785 40.32C300.998 40.32 302.053 40.5627 302.949 41.048C303.863 41.5147 304.591 42.1027 305.133 42.812V40.572H308.353V56H305.133V53.704C304.591 54.432 303.854 55.0387 302.921 55.524C301.987 56.0093 300.923 56.252 299.729 56.252C298.403 56.252 297.19 55.916 296.089 55.244C294.987 54.5533 294.11 53.6013 293.457 52.388C292.822 51.156 292.505 49.7653 292.505 48.216ZM305.133 48.272C305.133 47.208 304.909 46.284 304.461 45.5C304.031 44.716 303.462 44.1187 302.753 43.708C302.043 43.2973 301.278 43.092 300.457 43.092C299.635 43.092 298.87 43.2973 298.161 43.708C297.451 44.1 296.873 44.688 296.425 45.472C295.995 46.2373 295.781 47.152 295.781 48.216C295.781 49.28 295.995 50.2133 296.425 51.016C296.873 51.8187 297.451 52.4347 298.161 52.864C298.889 53.2747 299.654 53.48 300.457 53.48C301.278 53.48 302.043 53.2747 302.753 52.864C303.462 52.4533 304.031 51.856 304.461 51.072C304.909 50.2693 305.133 49.336 305.133 48.272ZM315.737 42.812C316.204 42.028 316.82 41.4213 317.585 40.992C318.369 40.544 319.293 40.32 320.357 40.32V43.624H319.545C318.295 43.624 317.343 43.9413 316.689 44.576C316.055 45.2107 315.737 46.312 315.737 47.88V56H312.545V40.572H315.737V42.812ZM328.891 56.252C327.678 56.252 326.586 56.0373 325.615 55.608C324.663 55.16 323.907 54.5627 323.347 53.816C322.787 53.0507 322.489 52.2013 322.451 51.268H325.755C325.811 51.9213 326.119 52.472 326.679 52.92C327.258 53.3493 327.977 53.564 328.835 53.564C329.731 53.564 330.422 53.396 330.907 53.06C331.411 52.7053 331.663 52.2573 331.663 51.716C331.663 51.1373 331.383 50.708 330.823 50.428C330.282 50.148 329.414 49.84 328.219 49.504C327.062 49.1867 326.119 48.8787 325.391 48.58C324.663 48.2813 324.029 47.824 323.487 47.208C322.965 46.592 322.703 45.78 322.703 44.772C322.703 43.9507 322.946 43.204 323.431 42.532C323.917 41.8413 324.607 41.3 325.503 40.908C326.418 40.516 327.463 40.32 328.639 40.32C330.394 40.32 331.803 40.768 332.867 41.664C333.95 42.5413 334.529 43.7453 334.603 45.276H331.411C331.355 44.5853 331.075 44.0347 330.571 43.624C330.067 43.2133 329.386 43.008 328.527 43.008C327.687 43.008 327.043 43.1667 326.595 43.484C326.147 43.8013 325.923 44.2213 325.923 44.744C325.923 45.1547 326.073 45.5 326.371 45.78C326.67 46.06 327.034 46.284 327.463 46.452C327.893 46.6013 328.527 46.7973 329.367 47.04C330.487 47.3387 331.402 47.6467 332.111 47.964C332.839 48.2627 333.465 48.7107 333.987 49.308C334.51 49.9053 334.781 50.6987 334.799 51.688C334.799 52.5653 334.557 53.3493 334.071 54.04C333.586 54.7307 332.895 55.272 331.999 55.664C331.122 56.056 330.086 56.252 328.891 56.252Z" fill="#17191F"/>
<g clip-path="url(#clip0_1091_1224)">
<path fill-rule="evenodd" clip-rule="evenodd" d="M52.9255 21C39.1423 21 28 32.2292 28 46.1212C28 57.2258 35.1393 66.6256 45.0434 69.9525C46.2816 70.2026 46.7352 69.412 46.7352 68.7469C46.7352 68.1645 46.6944 66.1683 46.6944 64.0884C39.7607 65.5859 38.3168 61.0937 38.3168 61.0937C37.2026 58.1823 35.5515 57.434 35.5515 57.434C33.2821 55.8951 35.7168 55.8951 35.7168 55.8951C38.2342 56.0615 39.5551 58.4738 39.5551 58.4738C41.7832 62.2999 45.3735 61.2188 46.8179 60.5532C47.024 58.9311 47.6847 57.8082 48.3862 57.1845C42.8561 56.6021 37.0378 54.4394 37.0378 44.79C37.0378 42.045 38.0276 39.7992 39.5959 38.0525C39.3485 37.4288 38.4816 34.8496 39.8439 31.3977C39.8439 31.3977 41.9485 30.7321 46.6939 33.9763C48.7256 33.4264 50.8208 33.1467 52.9255 33.1443C55.0301 33.1443 57.1755 33.4358 59.1566 33.9763C63.9025 30.7321 66.0071 31.3977 66.0071 31.3977C67.3694 34.8496 66.502 37.4288 66.2546 38.0525C67.8643 39.7992 68.8133 42.045 68.8133 44.79C68.8133 54.4394 62.9949 56.5602 57.4235 57.1845C58.3316 57.9746 59.1153 59.4716 59.1153 61.8425C59.1153 65.2113 59.0745 67.9149 59.0745 68.7464C59.0745 69.412 59.5286 70.2026 60.7663 69.953C70.6704 66.6251 77.8097 57.2258 77.8097 46.1212C77.8505 32.2292 66.6673 21 52.9255 21Z" fill="#17191F"/>
</g>
<defs>
<radialGradient id="paint0_radial_1091_1224" cx="0" cy="0" r="1" gradientUnits="userSpaceOnUse" gradientTransform="translate(27.9832 -2.75208e-06) rotate(16.8253) scale(357.313 204.215)">
<stop stop-color="white"/>
<stop offset="1" stop-color="#DBE1ED"/>
</radialGradient>
<clipPath id="clip0_1091_1224">
<rect width="50" height="49" fill="white" transform="translate(28 21)"/>
</clipPath>
</defs>
</svg>
