<svg width="389" height="85" viewBox="0 0 389 85" fill="none" xmlns="http://www.w3.org/2000/svg">
<g clip-path="url(#clip0_1091_1102)">
<mask id="mask0_1091_1102" style="mask-type:luminance" maskUnits="userSpaceOnUse" x="0" y="0" width="389" height="85">
<path d="M389 0H0V84.9145H389V0Z" fill="white"/>
</mask>
<g mask="url(#mask0_1091_1102)">
<path d="M375.479 0H13.5216C6.05385 0 0 6.06187 0 13.5396V71.3749C0 78.8526 6.05385 84.9145 13.5216 84.9145H375.479C382.947 84.9145 389 78.8526 389 71.3749V13.5396C389 6.06187 382.947 0 375.479 0Z" fill="#ECECEC"/>
<path d="M270.728 27.9673V21.9376H275.288C311.776 21.9376 348.264 21.9376 384.736 21.9376C386.153 21.9376 387.584 21.8598 389 21.8286V60.7802C387.584 60.8113 386.153 60.8893 384.736 60.8893C354.581 60.8893 324.41 60.8893 294.255 60.8893C292.559 62.1201 290.582 61.9487 288.653 61.9954C283.363 62.1201 278.072 61.4968 272.782 62.1669C270.542 61.8864 269.717 60.2816 269.654 58.3496C269.343 49.1726 269.422 39.98 269.608 30.8031C269.623 29.7435 270.043 28.7931 270.712 27.9517L270.728 27.9673Z" fill="#21293C"/>
<path d="M376.552 0.779032H12.4476C12.1986 0.607645 12.1052 0.436258 12.1986 0.264871C12.2764 0.0934838 12.3698 0 12.4476 0H376.552C376.8 0.171387 376.894 0.342774 376.816 0.514161C376.739 0.685548 376.645 0.779032 376.567 0.779032H376.552Z" fill="#F1F1F1"/>
<path d="M59.1277 84.1353C164.422 84.1353 269.701 84.1353 374.996 84.1353C375.244 84.3068 375.338 84.4781 375.244 84.6495C375.167 84.8209 375.074 84.9144 374.996 84.9144H41.2337C41.187 84.6807 41.1248 84.4469 41.0781 84.2133C41.3738 83.8238 41.7628 83.5432 42.214 83.3563C47.8778 83.0603 53.5728 81.8917 59.1277 84.1353Z" fill="#F9F9F9"/>
<path d="M0 59.2064C1.2448 58.8637 0.37344 57.1966 1.50932 56.7759C6.79972 61.5436 11.8723 66.5138 16.5403 71.8891C17.505 73.0109 18.1118 74.2418 18.423 75.6752C18.5631 76.9217 18.1585 77.9655 17.2249 78.8225C16.2291 79.4457 15.1088 79.4769 14.4397 78.5265C10.1607 72.4032 4.17008 67.7446 0 61.5436V59.2064Z" fill="#C5BA7D"/>
<path d="M0 61.5435C5.85056 66.4669 10.7364 72.2629 15.5756 78.6043L17.0693 78.6977L17.3338 78.9626C17.4116 79.2274 17.365 79.4611 17.1938 79.6793C17.0538 79.8818 16.9137 80.0844 16.8048 80.3026C16.7114 80.6921 16.727 81.0816 16.727 81.4867C16.6959 81.7983 16.6181 82.0787 16.4936 82.3592C16.1668 82.9356 15.8712 83.5589 15.0621 83.5277C10.9387 76.7657 4.49684 71.9045 0 65.4386V61.5435Z" fill="#CBC083"/>
<path d="M0 65.4387C3.59436 68.9132 7.53104 72.1229 10.6586 75.9713C12.4636 78.1993 14.4864 80.5208 15.5289 83.3565C15.7623 83.6836 15.7467 84.0109 15.5289 84.3381C14.9843 84.525 14.4708 84.5717 13.9729 84.229L14.0196 84.0731C13.1638 83.5279 12.1057 83.2163 11.5455 82.3126C8.90032 77.9968 5.16592 74.6625 1.66492 71.1101C0.9336 70.3623 0.65352 69.3339 0 68.5549V65.4387Z" fill="#D2C78B"/>
<path d="M0 68.5549C4.32568 72.3254 8.60468 76.1271 11.7011 81.0662C12.3702 82.1412 13.2416 83.0761 14.0196 84.0732C12.8681 84.3225 11.8567 83.9174 10.892 83.3409C7.06424 80.1314 3.64104 76.5478 0.76244 72.4501L0.73132 72.4813C0.29564 72.045 0.51348 71.2972 0 70.8921V68.5549Z" fill="#D7CB91"/>
<path d="M41.2339 84.1511C41.2339 84.4004 41.2339 84.6653 41.2339 84.9146H26.4519C26.343 84.4471 26.483 84.0576 26.8565 83.746C27.2299 83.4968 27.65 83.3254 28.0857 83.2318C32.1002 82.967 36.1302 82.7488 40.1447 83.3565C40.5804 83.5124 40.9538 83.7772 41.2339 84.1511Z" fill="#F6F6F6"/>
<path d="M26.4518 84.151C26.4518 84.4003 26.4518 84.6651 26.4518 84.9145H14.0038C14.0038 84.6807 14.0038 84.4626 13.9727 84.2288L15.5287 84.0887C16.5245 83.2317 17.7226 83.1071 18.9674 83.1227C19.7454 83.1071 20.5079 83.1382 21.2859 83.1538C21.6593 83.1538 22.0327 83.1538 22.3906 83.1694C23.2931 83.2162 24.1956 83.2317 25.0981 83.3563C25.4559 83.4187 25.7827 83.5589 26.1095 83.7303C26.2339 83.8705 26.3429 83.9952 26.4673 84.1354L26.4518 84.151Z" fill="#F2F2F2"/>
<path d="M0 70.8918C0.8558 71.1567 0.778 71.8266 0.73132 72.4966C0.48236 72.4966 0.24896 72.4655 0 72.4499V70.8918Z" fill="#E7DFBB"/>
<path d="M23.3396 32.6881C25.8137 26.0819 27.8053 19.3199 29.5947 12.4956C32.131 12.4021 32.0999 14.5678 32.6756 16.1103C33.7337 18.9304 33.6559 22.14 35.492 24.7108C39.3042 26.3623 43.3653 24.7887 47.2242 25.6768C47.5977 25.8015 47.9244 25.9884 48.2356 26.2222C48.4379 26.5493 48.5001 26.8921 48.4223 27.266C48.1111 27.7023 47.691 28.0139 47.2242 28.2788C46.9441 28.4501 46.6485 28.5904 46.3529 28.7462C45.9327 28.9799 45.5282 29.2292 45.1392 29.5097C44.3456 30.0706 43.5209 30.5691 42.6496 31.0054C42.3539 31.1768 42.0427 31.3015 41.7315 31.4416C40.5334 31.9246 39.9733 32.9062 39.771 34.0903C38.9463 38.9048 36.7523 43.2985 35.7098 48.0506C35.6631 48.3933 35.5853 48.7206 35.4764 49.0478C35.3208 49.5308 35.103 49.9826 34.9007 50.4501C34.7918 50.7617 34.6517 51.0732 34.5273 51.3692C33.9204 52.7715 33.6092 54.2517 33.4847 55.7786C33.4069 56.3395 33.2513 56.8848 33.0024 57.399C31.2908 60.889 30.2016 64.5972 29.019 68.2743C28.5055 69.8635 27.9298 71.4371 27.0585 72.8862C24.3666 77.4201 22.1259 77.6383 18.4227 73.6496C17.6135 71.6553 18.765 69.957 19.2007 68.134C19.294 67.7913 19.4185 67.4641 19.5585 67.1369C19.8075 66.4981 20.0253 65.8592 20.1654 65.1893C20.3677 64.2077 20.6789 63.2417 20.9589 62.2758C21.0367 61.9486 21.1612 61.6213 21.2701 61.2941C21.5035 60.6398 21.7058 59.9854 21.8925 59.3154C24.2732 50.3877 27.4319 41.6937 29.7192 32.6414C27.8987 32.4232 27.0429 33.7164 25.7981 33.9501C25.2691 34.1215 24.7245 34.1839 24.1799 34.1059C23.822 34.028 23.4952 33.8567 23.2151 33.6385C23.0284 33.2957 23.0595 32.9686 23.3396 32.6881Z" fill="#C0C0C0"/>
<path d="M270.729 27.9673V59.7985C271.21 61.0917 271.957 61.6525 273.171 61.4968C278.789 61.0294 284.172 62.2758 289.509 63.7248C290.24 63.9274 290.972 64.3169 290.926 65.3141H255.075C258 59.0817 260.817 53.1144 263.727 46.8977C260.941 40.8836 258.078 34.6981 254.95 27.9829H270.713L270.729 27.9673Z" fill="#11111A"/>
<path d="M24.8962 33.514C26.9035 32.7505 28.3972 30.9743 31.198 30.2732C30.4356 35.7732 28.4128 40.5409 27.0591 45.4487C25.7053 50.3411 24.0404 55.1555 22.5155 59.9855C22.0487 60.4062 22.2355 61.1384 21.7842 61.5591C21.7842 61.8085 21.7842 62.0577 21.7531 62.3071C19.8237 63.3041 19.528 61.637 19.1701 60.5464C17.2407 54.4232 13.9887 49.1725 9.50742 44.5762C8.04478 43.0805 6.69106 41.2264 6.9089 38.827C6.9089 35.6797 8.49602 32.9687 9.25846 30.024C10.1765 26.4716 11.0323 22.888 12.4171 19.4602C12.6816 19.2577 12.9617 19.2421 13.2418 19.4292C13.553 19.8031 13.5997 20.2705 13.5841 20.7378C13.553 21.3611 13.6308 21.9532 14.1131 22.4205C14.2687 22.6855 14.3465 22.9659 14.3621 23.2619C14.3777 23.8384 14.2999 24.4617 14.7978 24.9135C15.2179 25.0381 15.4357 25.303 15.3579 25.7549C15.109 26.5651 14.86 27.3752 15.7158 27.9984C16.0737 28.0608 16.2915 28.2633 16.3538 28.6373C16.5094 28.98 16.7583 29.0579 17.0851 28.8709C17.5363 28.8709 17.7853 29.0735 17.8787 29.5098C18.1276 29.8214 18.361 30.133 18.7033 30.32L18.6722 30.2888C18.8745 30.616 19.1235 30.6316 19.4191 30.4135C19.8548 30.4135 20.1193 30.616 20.2127 31.0522C20.4461 31.3638 20.8195 31.4885 21.0996 31.7378C21.2552 31.9559 21.473 32.0339 21.7531 31.9715C22.1888 31.9871 22.4533 32.2052 22.5467 32.6259C22.8267 32.8908 23.0601 33.2024 23.3402 33.4672H23.3247C23.8226 33.9658 24.3361 33.9814 24.8651 33.4984L24.8962 33.514Z" fill="#BFB374"/>
<path d="M34.2315 25.708C33.0801 22.9035 32.7533 19.8652 31.8509 16.9984C31.3529 15.4092 31.5708 13.3682 29.5791 12.4957C29.937 11.3582 30.7305 10.8909 31.8975 10.8909C38.9618 10.8909 46.026 10.8909 53.0903 10.9375C53.806 10.9375 54.5218 11.4205 55.222 11.6699C56.2334 16.2506 55.4865 20.6599 53.9616 24.9913C53.4637 25.5366 52.8413 25.8794 52.1411 26.082C46.1661 25.9729 40.191 26.3935 34.2315 25.6925V25.708Z" fill="#D8D8D8"/>
<path d="M70.0353 31.1612C71.5757 32.2674 71.3734 34.5266 73.0228 35.29C73.3184 38.1725 72.8983 40.6031 71.5757 42.8466C70.2064 44.5138 68.1992 45.0279 66.3009 45.6512C64.1847 46.3523 62.5509 45.807 61.9596 43.4076C61.8974 43.0336 61.9285 42.6441 62.0686 42.2858C62.442 41.6937 63.1266 41.6937 63.7024 41.4756C63.0022 40.6031 62.3331 41.2263 61.664 41.4912C61.3372 41.6313 60.9949 41.7249 60.6526 41.8028C55.8446 43.7347 53.8218 47.7546 52.6548 52.4132C50.5075 57.6016 48.1891 62.7276 46.6331 68.1496C46.5086 68.5236 46.353 68.8819 46.1507 69.2247C45.1549 70.5958 44.6258 72.185 44.0034 73.7275C43.5833 74.8025 43.2098 75.9244 42.603 76.8903C41.436 78.7912 40.02 80.879 37.4526 79.6793C35.0253 78.5419 35.741 76.2827 36.5035 74.2883C36.7991 73.5873 37.0792 72.8706 37.2037 72.1072C37.3126 71.5306 37.4371 70.9853 37.6083 70.4244C39.102 67.7757 37.9039 64.0208 41.047 62.042C42.9298 62.4627 43.9723 61.2941 44.7658 59.9074C46.5552 56.7602 48.5625 53.6752 49.5272 50.1851C50.9121 45.1526 53.3705 40.6031 55.3 35.8198C56.5292 32.766 58.5676 31.3949 61.8818 31.6598C63.6557 31.8 65.5073 31.8935 67.2656 31.3015C68.1837 31.0521 69.1017 30.6003 70.0664 31.13L70.0353 31.1612Z" fill="#DBDBDB"/>
<path d="M6.94028 38.8269C9.25872 42.8 12.3396 46.1342 15.2493 49.6554C18.1279 53.1299 19.2326 57.7573 20.6642 62.1199L21.7845 62.3225L20.9754 65.4542C20.5086 65.8749 20.7108 66.5915 20.244 67.0122C20.244 67.2616 20.244 67.5264 20.2129 67.7757C18.2212 68.1652 17.5677 66.5137 16.6808 65.3607C13.5221 61.3409 10.6746 57.0718 5.91332 54.5634C3.82828 53.4571 2.91024 51.4472 3.87496 48.9855C4.46624 45.4642 5.2598 42.0053 6.95584 38.8269H6.94028Z" fill="#C0B276"/>
<path d="M45.9012 68.5546C45.5433 65.719 47.3327 63.5065 48.1419 61.0292C49.1533 57.9598 50.2113 54.8748 52.1252 52.195C53.6501 48.8607 56.2642 47.7389 59.6251 48.9074C62.7683 49.9981 66.3004 48.6114 69.2412 50.6369C69.2101 53.6907 67.3429 56.2615 66.9072 59.2062C66.6116 59.44 66.4093 59.7516 66.1292 59.9853C66.1292 60.2502 66.1292 60.4994 66.1292 60.7643C64.8222 61.9641 63.2662 61.7771 61.7102 61.5122C60.0453 61.2161 58.3648 61.185 56.6843 61.0448C52.8877 60.7488 50.1958 62.0886 48.5775 65.6878C48.0641 66.8408 47.8151 68.5858 45.8857 68.5702L45.9012 68.5546Z" fill="#DEDEDE"/>
<path d="M3.85894 48.9856C3.7189 50.4813 4.37242 51.7277 5.13486 53.0521C6.86202 53.9869 8.52694 55.171 10.2853 56.215C12.6193 57.6017 13.6462 60.3438 15.5445 62.2447C17.2561 63.9586 17.8941 66.5604 20.197 67.7602L18.7032 73.229C19.0611 74.2417 18.7343 74.9897 17.863 75.5505C16.7893 74.0548 15.5445 72.6213 14.4865 71.2036C11.2033 66.8254 6.9865 63.4911 3.20542 59.6583C2.3963 58.8325 1.41602 58.1158 1.52494 56.7603C1.99174 54.0648 2.36518 51.3538 3.8745 48.97L3.85894 48.9856Z" fill="#C2B476"/>
<path d="M45.9024 68.5549C47.1005 67.7913 46.7893 66.28 47.4895 65.2517C48.1897 64.2234 49.4345 63.46 49.0766 62.1045L51.7218 60.2503C56.8255 59.2065 61.4312 60.8268 66.1304 60.7645L63.7964 68.5549C62.9406 69.3339 61.8825 69.2871 60.8711 69.2092C55.4406 68.8041 49.9168 67.8069 45.2177 71.8268C44.0818 70.4401 45.4667 69.5987 45.9024 68.5549Z" fill="#E1E1E1"/>
<path d="M42.0119 30.3823C42.2765 30.3823 42.5254 30.3823 42.7899 30.3823C44.6727 29.5097 46.7111 29.3851 48.7183 29.1202C50.0876 28.9176 50.5855 27.3908 51.8614 27.048C54.8334 28.0919 57.7431 27.5466 60.5906 26.565C62.6601 25.8483 64.714 25.2406 66.9391 25.6925C68.0127 26.0976 68.5417 26.8766 68.4795 28.0451C66.799 29.5721 64.2939 28.8087 62.7067 30.1173C61.4775 30.538 63.298 32.3766 61.4308 32.3298C57.6186 32.0494 53.8375 33.9658 50.0253 32.5012C47.987 32.2363 45.9331 31.9247 43.6302 32.8596C40.0514 43.1272 37.2506 53.7532 33.6873 64.1299C33.6095 64.4883 33.5006 64.8466 33.3606 65.1894C33.1116 65.8437 32.8471 66.4982 32.6604 67.1681C32.5826 67.4953 32.4737 67.8226 32.3492 68.1341C31.8201 69.5208 31.4 70.9542 30.9177 72.3721C30.4664 73.5718 30.093 74.8026 29.7195 76.0179C29.6417 76.314 29.5328 76.61 29.4083 76.8904C29.1127 77.5604 28.8326 78.246 28.6459 78.9626C28.5681 79.2431 28.4592 79.508 28.3503 79.7728C28.1324 80.3026 27.9768 80.8479 27.8212 81.4089C27.7279 81.7049 27.6189 81.9853 27.4789 82.2502C27.2766 82.6865 27.0277 83.0916 26.7009 83.4343C26.4053 83.6212 26.0941 83.6836 25.7673 83.6212C25.4717 83.4343 25.2694 83.1694 25.1449 82.8578C24.8181 81.44 25.4872 80.1935 25.8607 78.9004C26.1407 78.1213 26.3275 77.3267 26.4831 76.5165C26.5453 76.1893 26.6387 75.8777 26.7631 75.566C27.3389 74.3975 27.8523 73.2134 28.1635 71.9358C28.2569 71.6086 28.3658 71.2815 28.4903 70.9542C29.2216 68.9287 29.8907 66.8877 30.3575 64.7999C30.4197 64.4727 30.5287 64.1455 30.6376 63.8339C30.871 63.2418 31.0888 62.6342 31.2755 62.0109C31.3689 61.6993 31.4778 61.4033 31.6179 61.1072C31.9602 60.5152 31.9446 59.8452 32.1313 59.2064C32.2247 58.8637 32.3492 58.5365 32.4892 58.2092C33.7651 55.1555 34.4498 51.9147 35.4612 48.7675C36.5193 43.5167 38.7599 38.6088 39.8024 33.3582C40.0669 32.0494 40.9227 31.0989 42.0431 30.3823H42.0119Z" fill="#D2D2D2"/>
<path d="M69.242 50.6371C65.0719 50.6215 60.8551 50.98 56.9963 49.2038C54.8334 49.453 53.7909 51.3227 52.126 52.1952C52.2038 46.6641 55.8448 43.5012 59.8904 40.6344C60.1549 40.4474 60.5439 40.8992 60.684 41.2887C60.8396 41.9588 61.0107 42.6287 61.2286 43.174C61.7732 43.3455 61.9599 43.0026 62.24 42.8469C63.3759 43.1429 62.7223 44.5452 63.7804 45.1372C66.5501 45.4644 68.7285 42.9092 71.576 42.8469C71.4671 45.6513 70.1445 48.0819 69.242 50.6371Z" fill="#DDDDDD"/>
<path d="M45.1248 71.671C46.8675 71.0633 47.2721 69.2093 48.5324 67.9161C53.5739 67.5732 58.6931 67.7447 63.7812 68.5549L62.2252 74.0081C60.7315 75.3324 58.8798 75.3013 57.1371 75.0364C53.3405 74.4911 49.5438 74.4132 45.7316 74.4287C45.0314 74.1483 44.6736 73.6186 44.6113 72.8707C44.6269 72.4033 44.798 71.9982 45.1092 71.6554L45.1248 71.671Z" fill="#E4E4E4"/>
<path d="M45.1246 74.008C48.5011 73.0887 51.8154 72.9328 55.3008 73.8365C57.4792 74.3975 59.9221 73.9768 62.2406 74.008L60.6846 79.4612C58.0549 81.0659 55.2852 79.8974 52.7645 79.4612C49.0301 78.7911 46.1515 79.4768 43.802 82.4215C43.1329 83.2473 42.0592 83.5277 41.2501 84.1509H40.4721C39.4607 82.7798 40.441 81.7826 41.1101 80.7388C41.7636 79.9753 42.1837 79.0717 42.5572 78.1524C42.6816 77.8564 42.8217 77.5759 42.9773 77.311C43.1951 76.9059 43.4285 76.5164 43.6308 76.1269C43.7553 75.862 43.8953 75.5972 44.0354 75.3478C44.2376 74.9583 44.4866 74.6 44.7822 74.2728C44.9067 74.1949 45.0312 74.117 45.1557 74.0546L45.1246 74.008Z" fill="#E7E7E7"/>
<path d="M41.2334 84.1355C42.7427 81.7205 44.8278 79.8509 47.4574 77.8098L60.6834 79.4613C60.061 80.9882 58.8473 82.3126 59.1274 84.1355C53.1679 84.1355 47.1929 84.1355 41.2334 84.1355Z" fill="#E9E9E9"/>
<path d="M290.911 65.2985C285.153 63.2885 279.116 62.5718 273.156 61.4968C273.467 60.7645 274.09 60.7801 274.744 60.7801C281.247 60.8268 287.752 60.858 294.24 60.8891L293.789 64.9713C292.872 65.6724 291.875 65.4698 290.895 65.2985H290.911Z" fill="#42537E"/>
<path d="M66.9237 25.6925C63.7339 25.8795 61.1198 27.9517 57.93 28.388C56.1406 28.6372 54.429 28.7151 52.9353 28.7775C52.1417 28.2945 52.1884 27.7491 52.1262 27.2661C51.4104 26.4871 51.5816 25.7081 52.1262 24.9291H53.6822C55.5027 23.4488 57.3076 23.8073 59.1282 24.9291C61.0576 24.9291 63.0026 24.9291 64.932 24.9291C65.6945 24.9291 66.5192 24.7888 66.9237 25.6925Z" fill="#D6D6D6"/>
<path d="M59.1283 24.9134H53.6823C53.2311 22.1869 54.118 19.5537 54.6781 16.9829C55.0827 15.1911 55.0983 13.4462 55.2227 11.6855C56.2653 15.3937 57.3545 19.0707 58.2881 22.81C58.4748 23.5736 58.9105 24.1967 59.1127 24.929L59.1283 24.9134Z" fill="#E3E3E3"/>
<path d="M62.2404 31.9403C62.0225 30.8028 60.6221 31.5352 60.1709 30.538C62.5671 28.5125 65.3368 27.7179 68.4488 28.0451C68.8067 29.1669 70.2538 29.7434 70.0204 31.1613C69.2424 31.4105 68.6044 32.1116 67.6708 31.9403C65.8503 32.5323 64.0453 32.5323 62.2248 31.9403H62.2404Z" fill="#D0CFD0"/>
<path d="M15.731 28.0295C14.3773 27.4842 14.5329 26.6896 15.3731 25.7859L15.731 28.0295Z" fill="#928B6D"/>
<path d="M13.9725 22.5452C13.1633 22.3115 13.2567 21.6571 13.2256 21.0339C13.4745 20.66 13.6924 20.6912 13.9102 21.0495C13.9725 21.2988 14.0036 21.5481 14.0036 21.7974C14.2214 21.9688 14.2837 22.1401 14.2059 22.296C14.1281 22.4518 14.0503 22.5296 13.9569 22.5296L13.9725 22.5452Z" fill="#99906C"/>
<path d="M14.8131 24.9292C13.9729 24.711 14.0351 24.0411 14.0195 23.3866C14.2529 22.9971 14.4552 23.0283 14.6419 23.4178L14.7975 24.9292H14.8131Z" fill="#948B64"/>
<path d="M14.6574 23.4177L14.3462 23.3866H14.035L13.9883 22.5296C13.9883 22.2804 13.9883 22.0467 14.035 21.7974C14.7663 22.1245 14.8285 22.7322 14.6729 23.4177H14.6574Z" fill="#A6A395"/>
<path d="M13.9259 21.065H13.2412L13.2723 19.4446C14.0348 19.7563 14.0503 20.395 13.9414 21.065H13.9259Z" fill="#AFA885"/>
<path d="M21.7683 31.9869C21.6283 32.1583 21.4883 32.3297 21.3482 32.5011C21.2237 32.3141 21.1148 32.1116 20.9903 31.9246C20.8036 31.8 20.7414 31.6753 20.8036 31.5506C20.8659 31.426 20.9281 31.3637 20.9903 31.3637C21.4416 31.317 21.6439 31.5974 21.7683 31.9869Z" fill="#AEA26C"/>
<path d="M19.4501 30.429C19.31 30.6005 19.1544 30.7563 19.0144 30.9276C18.9055 30.7251 18.8121 30.5225 18.7188 30.3045C18.9833 30.2733 19.2322 30.3045 19.4656 30.429H19.4501Z" fill="#A99F69"/>
<path d="M66.1299 59.9856C66.2077 59.5493 66.4722 59.3 66.9079 59.2065C66.8301 59.6428 66.5656 59.8921 66.1299 59.9856Z" fill="#E1E1E1"/>
<path d="M17.1005 28.9021C16.9293 29.058 16.7737 29.1981 16.6025 29.354C16.5247 29.1203 16.4469 28.9021 16.3691 28.6685C16.6181 28.7308 16.8671 28.793 17.1005 28.9021Z" fill="#ADA16F"/>
<path d="M13.2729 19.4446L12.4482 19.4758C12.5416 19.2888 12.5883 18.9772 12.7128 18.946C13.1173 18.8213 13.1796 19.1641 13.2574 19.4602L13.2729 19.4446Z" fill="#AFA885"/>
<path d="M18.7348 30.3512C18.2369 30.3044 17.9724 30.024 17.9102 29.541C18.3458 29.6656 18.6726 29.8838 18.7348 30.3512Z" fill="#A69E79"/>
<path d="M23.3717 33.4827C22.8893 33.4048 22.6404 33.1244 22.5781 32.6414C22.8271 32.6725 23.0916 32.6881 23.3406 32.6881L23.3717 33.4827Z" fill="#AAA074"/>
<path d="M21.0066 31.3639C21.0066 31.5509 21.0066 31.7379 21.0066 31.9248C20.5398 31.8313 20.2908 31.5353 20.2441 31.0679L21.0066 31.3639Z" fill="#A39B6F"/>
<path d="M284.951 34.6359C285.852 34.1061 286.708 34.1217 287.782 34.48C289.011 37.1755 288.825 40.4162 290.411 43.7505C291.33 40.2761 292.092 37.3936 292.823 34.6203C293.71 34.1061 294.442 34.1373 295.282 34.4489C296.574 37.1911 296.621 40.4007 298.3 43.7194C299.078 40.3383 299.733 37.4559 300.37 34.6515C301.289 34.0126 302.144 34.1529 303.389 34.5424C302.19 39.0919 300.992 43.6259 299.841 47.9729C298.674 48.5338 297.818 48.6117 296.822 47.9573C296.076 45.4177 295.282 42.7222 294.364 39.6216C292.59 42.3795 292.621 45.3242 291.376 48.0196C290.786 48.7052 289.867 48.3313 288.778 48.4247C287.082 43.8907 286.257 39.1854 284.935 34.6359H284.951Z" fill="#FBFBFB"/>
<path d="M335.505 47.9883C334.229 48.5335 333.498 48.4713 332.533 48.1128V34.6668C333.093 33.9501 333.902 34.2929 334.945 34.2929C336.89 36.926 338.928 39.6993 341.448 43.1115V34.9628C342.584 33.9189 343.425 34.3084 344.437 34.3396V47.9415C343.736 48.627 342.958 48.3778 341.931 48.2843C340.002 45.6355 337.963 42.8466 335.49 39.4656V47.9883H335.505Z" fill="#F9F9FA"/>
<path d="M324.612 42.3326V34.9317C325.5 33.9969 326.293 34.2462 327.289 34.3086V48.0974C326.651 48.6583 325.889 48.3778 324.94 48.2532C322.979 45.5889 320.941 42.8155 318.404 39.3723V47.0379C317.938 48.3156 317.549 48.409 317.175 48.3934C316.677 48.3778 316.195 48.2688 315.557 48.1753V34.6825C316.335 34.0592 317.082 34.1683 318.093 34.4799L323.912 42.3482H324.628L324.612 42.3326Z" fill="#F7F8F8"/>
<path d="M372.133 43.1738C372.989 44.8253 373.813 46.3834 374.623 47.9571C373.565 48.627 372.678 48.4401 371.822 48.2998C369.783 47.0534 370.608 42.7999 366.78 43.4542C366.018 44.9656 366.796 46.6016 366.188 48.0817C365.365 48.6114 364.54 48.5179 363.528 48.0817V34.7135C368.897 33.5918 371.231 33.9657 373.923 36.3962C374.545 37.705 374.498 39.1072 374.093 40.7433L372.117 43.1894L372.133 43.1738Z" fill="#FAFAFB"/>
<path d="M352.699 46.0096C354.69 46.0096 356.355 46.0096 358.036 46.0096C358.145 46.0096 358.254 46.1187 358.472 46.2434C359.063 46.6641 358.627 47.334 358.752 48.082C355.78 48.7831 352.839 48.2845 349.649 48.3935V34.4177H358.332C359.047 34.9163 358.689 35.5862 358.674 36.3029C356.854 37.0975 354.877 36.3653 352.948 36.8015C352.17 37.6117 352.403 38.5933 352.637 39.5749C354.317 41.0706 357.305 38.5777 358.689 41.616C356.791 42.8624 354.753 41.8496 352.886 42.4729C352.092 43.4233 352.434 44.5295 352.684 45.9941L352.699 46.0096Z" fill="#FCFCFC"/>
<path d="M310.267 48.3156C309.271 48.4246 308.508 48.6116 307.652 47.9416V34.6981C308.571 34.0436 309.396 34.0436 310.267 34.5422V48.3156Z" fill="#EFF0F1"/>
<path d="M27.23 75.5661C27.23 75.8311 27.23 76.0803 27.23 76.3452C26.9033 76.6724 26.7788 77.1243 26.5765 77.5294C26.4053 77.9656 26.2031 78.4019 25.9697 78.807C25.7985 79.103 25.6273 79.3834 25.4251 79.6483C24.756 80.4274 23.978 81.0505 22.951 81.2843C20.7104 81.0505 19.0143 79.6639 17.1316 78.6667L17.0693 78.6979L17.8629 75.5661C17.7851 74.6625 18.3919 74.0081 18.7031 73.2447L21.5195 75.4572H24.3514C27.1367 71.671 28.2103 67.3241 29.6885 63.1173C30.4354 60.9983 30.5132 58.3652 32.6916 56.8694C33.2206 57.6485 33.2206 58.4275 32.6916 59.2065C31.9603 59.8297 32.5982 60.9048 31.9136 61.5436C31.1823 62.1668 31.8202 63.2419 31.1356 63.8807C30.0931 66.4048 29.6574 69.1003 28.8016 71.671C28.1014 72.9019 27.8991 74.3197 27.2456 75.5661H27.23Z" fill="#C3C3C3"/>
<path d="M17.1473 78.6667C17.7074 78.6355 18.1898 77.8097 18.8122 78.4485C19.9014 79.5547 21.3951 79.9287 22.7333 80.6921C24.087 80.5986 24.4293 78.9471 25.6741 78.6667C26.032 81.2841 25.3007 83.2629 22.5621 84.0887H21.7686C20.0414 82.7176 17.8475 81.7983 17.1006 79.4457L17.1317 78.6511L17.1473 78.6667Z" fill="#C5C5C5"/>
<path d="M17.1001 79.4612C18.8273 80.8322 20.9123 81.8606 21.7681 84.1042H19.4341C18.4227 83.3096 16.929 83.1382 16.3066 81.7982L16.2755 81.0036C15.8709 80.4739 15.8865 79.9597 16.3688 79.4768C16.6178 79.4768 16.8512 79.4768 17.1001 79.4768V79.4612Z" fill="#C9C9C9"/>
<path d="M16.3218 81.7983C17.9556 81.7671 18.7492 82.8734 19.4494 84.1043H15.5127C15.5438 83.8393 15.5438 83.5901 15.5127 83.3407C15.5749 82.7176 15.5594 82.0475 16.3218 81.7827V81.7983Z" fill="#D3D2CE"/>
<path d="M16.3695 79.4612L16.2761 80.988C15.2959 80.4271 15.3892 79.913 16.3695 79.4612Z" fill="#C5BA7D"/>
<path d="M0.762695 72.45C4.76162 75.4882 7.9981 79.2587 10.8922 83.3409C5.30622 81.7828 1.89858 78.1681 0.762695 72.45Z" fill="#DCD299"/>
<path d="M42.0121 81.0192C40.9229 81.7672 40.5651 82.889 40.4561 84.1354H27.2301C26.9501 83.9017 26.8256 83.6056 26.8411 83.2473C26.8411 82.7331 26.8411 82.219 27.2301 81.8139C27.9615 81.1907 27.3235 80.1157 28.0081 79.4768C28.5061 79.0405 28.3349 78.3706 28.5994 77.8408C29.0351 77.389 29.2529 76.8592 29.2063 76.2205C29.2841 75.5816 29.7042 75.1142 30.0154 74.5845C30.4199 73.8678 30.3733 73.0108 30.7 72.263C30.7778 71.9202 30.9023 71.593 31.0579 71.2658C31.2291 70.9386 31.4469 70.627 31.6959 70.3466C31.8359 70.2063 31.9759 70.0817 32.116 69.9415C36.0838 67.8848 36.8307 68.0095 38.1377 70.8919V72.45C37.6398 72.8551 37.8421 73.6029 37.3597 74.008C37.5309 74.9896 36.7062 75.6751 36.6128 76.5632C36.4572 77.9967 36.7995 79.134 38.5889 79.4768C42.0277 78.4018 42.1989 74.9117 43.5215 72.2786C44.1905 70.9386 44.2372 69.2403 45.9177 68.5548L45.1397 71.6709V72.45C44.6107 72.9485 44.7663 73.712 44.4551 74.2884C43.8793 75.5193 43.2881 76.7501 42.9457 78.0745C42.1211 78.9003 42.7123 80.1623 42.0277 81.0192H42.0121Z" fill="#DEDEDE"/>
<path d="M27.2295 83.3562C27.2295 83.6056 27.2295 83.8704 27.2295 84.1197L26.4515 84.1509C26.2025 83.9639 26.1091 83.7925 26.2025 83.6211C26.2803 83.4497 26.3737 83.3562 26.4515 83.3562C26.716 82.9979 26.9649 83.0134 27.2295 83.3562Z" fill="#DCDCDC"/>
<path d="M22.5625 84.1043C24.5697 82.8578 25.3477 80.8947 25.6745 78.6822L26.0635 78.3862L26.4525 78.6822C26.7793 80.3338 25.3477 81.7049 25.6745 83.3564C25.8923 83.5278 25.9701 83.6992 25.8923 83.8706C25.8145 84.042 25.7367 84.1354 25.6745 84.1354L22.5625 84.1043Z" fill="#C9C9C9"/>
<path d="M25.6738 84.1355C25.6738 83.8706 25.6738 83.6214 25.6738 83.3564C25.9383 83.3564 26.1873 83.3564 26.4518 83.3564C26.4518 83.6214 26.4518 83.8706 26.4518 84.1355C26.1873 84.1355 25.9383 84.1355 25.6738 84.1355Z" fill="#DBDBDB"/>
<path d="M52.1264 24.929V27.2661C50.8505 27.7958 51.6441 29.1357 50.9439 30.1485C48.3609 30.6471 45.5601 30.242 42.7904 30.3822C43.2728 29.4161 44.3464 29.3539 45.1244 28.8241C45.3578 28.5437 45.6846 28.3411 45.9024 28.0451C46.1669 28.0451 46.4159 28.0451 46.6804 28.0451C46.9294 27.7646 47.225 27.5465 47.4584 27.2661C47.7229 27.2661 47.9719 27.2661 48.2364 27.2661C48.4231 27.0947 48.4854 26.9232 48.4231 26.7519C48.3609 26.5805 48.2987 26.487 48.2364 26.487C44.362 26.487 40.4875 26.487 36.5975 26.487C35.7573 26.487 34.7303 26.8298 34.2324 25.7236C38.8382 25.7236 43.4595 25.7236 48.0653 25.7236C49.4812 25.7236 50.8816 25.8015 52.1109 24.9445L52.1264 24.929Z" fill="#C9C9C9"/>
<path d="M42.012 30.3821C39.6935 34.807 38.9622 39.746 37.344 44.4047C36.7994 45.9628 36.3015 47.5208 35.788 49.0788C35.5235 49.3438 35.2745 49.3438 35.01 49.0788C33.9986 46.8353 35.6168 44.9812 36.177 43.0959C37.1573 39.824 38.3398 36.63 38.9155 33.2334C39.1956 31.5663 40.1759 30.46 41.9964 30.3821H42.012Z" fill="#C3C3C3"/>
<path d="M35.0098 49.0789H35.7878C35.5855 52.7092 34.3563 56.0279 32.6758 59.2063V55.3112C33.6094 53.8933 33.6561 52.1794 34.2318 50.637C34.6986 50.2163 34.5741 49.4995 35.0098 49.0789Z" fill="#C9C9C9"/>
<path d="M34.2322 50.637C34.2789 52.382 34.3256 54.127 32.6762 55.3112C32.6295 53.5661 33.0652 51.9769 34.2322 50.637Z" fill="#C3C3C3"/>
<path d="M24.8969 33.514C24.3523 34.4955 23.8388 34.48 23.3564 33.4673L24.8969 33.514Z" fill="#B6AB74"/>
<path d="M20.2281 66.9969C20.2281 66.3736 20.1814 65.7037 20.9594 65.4387C20.9905 66.0932 20.9905 66.7163 20.2281 66.9969Z" fill="#C2B476"/>
<path d="M21.8 61.5747C21.8 60.9358 21.7377 60.2659 22.5313 60.001C22.5624 60.6554 22.5624 61.2942 21.8 61.5747Z" fill="#C0B276"/>
<path d="M35.0104 49.0789C35.0104 49.7177 35.0416 50.3876 34.2324 50.637C34.2324 49.9981 34.2169 49.3282 35.0104 49.0789Z" fill="#C3C3C3"/>
<path d="M47.4577 27.2661C47.3643 27.7024 47.1154 27.9516 46.6797 28.0451C46.773 27.6089 47.022 27.3596 47.4577 27.2661Z" fill="#C0C0C0"/>
<path d="M48.2363 26.4871C48.423 26.6117 48.6098 26.7519 48.7965 26.8766C48.6098 27.0012 48.423 27.1414 48.2363 27.2661C48.2363 27.0012 48.2363 26.7519 48.2363 26.4871Z" fill="#C0C0C0"/>
<path d="M45.902 28.0452C45.8087 28.4814 45.5441 28.7307 45.124 28.8242C45.2174 28.3879 45.4663 28.1386 45.902 28.0452Z" fill="#C0C0C0"/>
<path d="M62.2396 31.9401H67.6856C67.0476 33.2022 65.8651 32.6725 64.9159 32.7037C62.722 32.7659 60.5124 32.7193 58.1784 32.7193C55.9067 36.1158 54.444 39.9487 52.9658 43.7192C50.8652 49.1256 49.1536 54.7191 46.2284 59.7049C45.3414 61.2162 44.6879 64.0519 41.9494 63.8181C41.218 63.3819 41.2958 62.821 41.2336 62.3224C40.7668 61.8238 40.6423 61.2317 40.6734 60.5774C43.2875 50.6369 46.135 40.7744 49.7916 31.1611C51.1453 32.096 52.6858 31.9401 54.2106 31.9401C56.887 31.9401 59.5633 31.9401 62.2396 31.9401Z" fill="#DAD9D9"/>
<path d="M41.2336 60.7646V62.3227C40.1132 63.6003 39.8176 65.1584 39.662 66.7943C39.522 68.29 39.1485 69.7235 38.1216 70.892C37.4369 69.2093 36.1143 69.038 34.6361 69.5366C33.6714 69.8637 32.8 70.4246 31.8976 70.892C31.2596 69.8481 31.3685 68.8198 31.8976 67.7759C31.8976 67.511 31.8976 67.2618 31.8976 66.9969C32.3799 66.5917 32.2243 65.8595 32.6756 65.4388C33.2357 64.3014 33.687 63.1329 34.3872 62.0578C36.5033 58.8482 37.7014 58.5989 41.2336 60.7646Z" fill="#DCDCDC"/>
<path d="M62.2395 42.8467C62.1151 43.8126 62.5663 44.8722 61.4771 46.0095C60.808 44.3736 58.9564 43.2518 60.6835 41.2886H61.4615L61.7416 41.3665C61.9128 41.4756 62.0528 41.6157 62.1617 41.7872L62.2395 42.0832V42.8623V42.8467Z" fill="#E1E1E1"/>
<path d="M61.4619 41.2887C61.5242 40.7901 61.4619 40.2448 62.131 39.8086C64.0916 39.4969 64.7295 41.2887 65.9588 42.3482C64.465 43.5635 63.4692 41.7405 62.2399 42.0521C61.991 41.7717 61.742 41.5224 61.4619 41.2731V41.2887Z" fill="#CECECE"/>
<path d="M37.3447 74.0081C37.3447 73.3692 37.3292 72.6993 38.1228 72.45C38.1228 73.0888 38.1383 73.7587 37.3447 74.0081Z" fill="#DCDCDC"/>
<path d="M41.2335 60.7644C39.7709 61.1539 38.6194 59.7984 37.0012 60.0944C35.3829 61.5901 34.8228 64.1921 32.6755 65.4385C32.3487 62.7432 33.718 60.4528 34.4649 58.0378C37.1101 49.5308 40.1599 41.1484 42.1671 32.4544C42.2138 32.2207 42.4472 32.0337 42.7584 31.5974C44.9212 30.7093 47.3797 31.3482 49.7759 31.1612C50.1027 35.3835 48.0799 39.0761 46.8973 42.8934C45.1391 48.5492 43.4275 54.2205 41.9493 59.9542C41.8715 60.2659 41.4669 60.4995 41.2179 60.7644H41.2335Z" fill="#DBDBDB"/>
<path d="M28.7861 71.671C29.0973 68.9288 29.004 66.0775 31.1201 63.8806C31.1513 66.7164 30.2177 69.2716 28.7861 71.671Z" fill="#C9C9C9"/>
<path d="M31.8974 67.7756V70.8918C31.6174 71.1255 31.384 71.4059 31.1194 71.6708C31.1194 71.9356 31.1194 72.185 31.1194 72.4498L30.7304 72.7458L30.3414 72.4498C30.3103 70.7048 30.7304 69.1156 31.8974 67.7756Z" fill="#DBDBDB"/>
<path d="M30.3421 74.7871L29.5641 76.3451C29.2996 76.7035 29.0507 76.688 28.7861 76.3451C29.0818 74.9585 29.2841 73.5251 30.3421 72.45C30.8712 73.2291 30.8712 74.0081 30.3421 74.7871Z" fill="#DBDBDB"/>
<path d="M27.2297 75.566C27.1675 74.0391 27.4475 72.6368 28.7857 71.6709C28.8479 73.1978 28.5679 74.6 27.2297 75.566Z" fill="#C9C9C9"/>
<path d="M31.1201 63.8805C31.229 63.0547 30.7311 62.0265 31.8981 61.5435C31.7892 62.3692 32.2871 63.3975 31.1201 63.8805Z" fill="#C9C9C9"/>
<path d="M28.0075 79.4612C27.8985 80.2869 28.3965 81.3152 27.2295 81.7982C27.3384 80.9725 26.8405 79.9441 28.0075 79.4612Z" fill="#DBDBDB"/>
<path d="M28.7859 77.903C28.7859 78.5418 28.8015 79.2118 28.0079 79.4611C28.1169 78.6353 27.6345 77.607 28.7859 77.124C29.0038 77.2954 29.0816 77.4668 29.0038 77.6382C28.926 77.8095 28.8637 77.903 28.7859 77.903Z" fill="#DBDBDB"/>
<path d="M26.4518 77.1242C26.5452 76.688 26.7941 76.4387 27.2298 76.3452C27.1209 77.171 27.6188 78.1993 26.4518 78.6823C25.985 78.1682 26.0161 77.6384 26.4518 77.1242Z" fill="#C9C9C9"/>
<path d="M31.8984 61.5437C32.0073 60.7179 31.5094 59.6896 32.6764 59.2065C32.5675 60.0323 33.0654 61.0607 31.8984 61.5437Z" fill="#C9C9C9"/>
<path d="M27.2292 83.3565C26.9647 83.3565 26.7157 83.3565 26.4512 83.3565C26.4512 82.7176 26.4356 82.0477 27.2292 81.7983V83.3565Z" fill="#DBDBDB"/>
<path d="M28.7861 77.9032V77.1242C28.7861 76.8594 28.7861 76.61 28.7861 76.3452H29.5641C29.5641 76.984 29.5797 77.654 28.7861 77.9032Z" fill="#DCDCDC"/>
<path d="M32.6765 65.4387C32.6765 66.0776 32.7076 66.7475 31.8985 66.9969C31.8985 66.358 31.8829 65.6881 32.6765 65.4387Z" fill="#DBDBDB"/>
<path d="M44.3457 74.0081C44.3457 73.3692 44.3302 72.6993 45.1237 72.45V74.0081C44.9992 74.1016 44.8592 74.195 44.7347 74.3041C44.6102 74.2106 44.4702 74.1016 44.3457 74.0081Z" fill="#E1E1E1"/>
<path d="M42.7893 77.9032C42.727 76.3764 43.0071 74.9741 44.3453 74.0081C44.8121 74.5222 44.7809 75.052 44.3453 75.5662V76.3452C44.0652 76.5789 43.8318 76.8749 43.5673 77.1242C43.5673 77.3891 43.5673 77.6384 43.5673 77.9032C43.3027 78.2148 43.0538 78.2148 42.7893 77.9032Z" fill="#E1E1E1"/>
<path d="M42.7908 77.9033H43.5688C42.713 78.7758 43.2265 80.3183 42.0128 81.0195C42.2462 79.9755 41.406 78.6668 42.7908 77.9033Z" fill="#E4E4E4"/>
<path d="M44.3457 75.5662V74.0081C44.6102 74.0081 44.8592 74.0081 45.1237 74.0081C45.1237 74.6469 45.1393 75.3168 44.3457 75.5662Z" fill="#E4E4E4"/>
<path d="M43.5674 77.1242C43.6607 76.688 43.9097 76.4387 44.3454 76.3452C44.252 76.7815 44.0031 77.0307 43.5674 77.1242Z" fill="#E4E4E4"/>
<path d="M370.764 37.0819C371.479 38.3751 371.432 39.3411 370.904 40.2603C369.706 41.4601 368.289 41.164 366.936 41.1016C366.002 39.6839 366.687 38.2972 366.36 36.6924C368.009 36.5054 369.348 36.3652 370.764 37.0819Z" fill="#293143"/>
<path d="M26.4519 77.124V78.6821C26.1873 78.6821 25.9384 78.6821 25.6739 78.6821C25.6739 78.0433 25.6583 77.3733 26.4519 77.124Z" fill="#C5C5C5"/>
<path d="M30.3418 74.7871V72.45C30.6063 72.45 30.8553 72.45 31.1198 72.45C31.0109 73.2758 31.5088 74.3041 30.3418 74.7871Z" fill="#DCDCDC"/>
<path d="M31.1201 71.6709C31.2135 71.2346 31.4624 70.9853 31.8981 70.8918C31.8048 71.3281 31.5558 71.5774 31.1201 71.6709Z" fill="#DCDCDC"/>
<path d="M61.4619 41.2886C61.8976 41.3821 62.1466 41.6313 62.2399 42.0676C61.8042 41.9742 61.5397 41.7248 61.4619 41.2886Z" fill="#DDDDDD"/>
<path d="M103.797 28.5631H96.8072V31.5601H100.781C100.685 32.5431 100.446 33.1425 99.9192 33.7659C99.0574 34.8208 97.7169 35.4442 96.3524 35.4442C93.4319 35.4442 91.3732 32.9028 91.3732 29.3064C91.3732 25.5422 93.1925 23.2645 96.2566 23.2645C97.5014 23.2645 98.5547 23.6241 99.3447 24.3194C99.8474 24.751 100.111 25.1586 100.422 26.0696H103.797C103.366 22.4493 100.446 20.1956 96.2327 20.1956C91.2056 20.1956 87.7824 23.9118 87.7824 29.3543C87.7824 34.653 91.2296 38.5131 95.9454 38.5131C98.2914 38.5131 99.8714 37.6739 101.212 35.7079L101.643 38.0096H103.797V28.5631ZM112.684 24.7989C108.735 24.7989 106.317 27.4123 106.317 31.656C106.317 35.9237 108.735 38.5131 112.708 38.5131C116.658 38.5131 119.1 35.9237 119.1 31.7519C119.1 27.3643 116.73 24.7989 112.684 24.7989ZM112.708 27.5082C114.552 27.5082 115.749 29.1625 115.749 31.704C115.749 34.1255 114.504 35.8038 112.708 35.8038C110.889 35.8038 109.668 34.1495 109.668 31.656C109.668 29.1625 110.889 27.5082 112.708 27.5082ZM125.069 20.4833H121.717V37.9617H125.069V20.4833ZM136.471 37.9617H139.823V20.4833H136.471V26.693C135.633 25.3983 134.532 24.7989 132.904 24.7989C129.816 24.7989 127.47 27.7719 127.47 31.68C127.47 33.4302 127.997 35.2044 128.859 36.4512C129.745 37.7219 131.324 38.5131 132.904 38.5131C134.532 38.5131 135.633 37.9377 136.471 36.643V37.9617ZM133.647 27.6041C135.346 27.6041 136.471 29.2344 136.471 31.7279C136.471 34.0776 135.322 35.7079 133.647 35.7079C131.971 35.7079 130.822 34.0536 130.822 31.68C130.822 29.2584 131.971 27.6041 133.647 27.6041ZM153.953 32.5431C153.977 32.2554 153.977 32.1355 153.977 31.9677C153.977 30.673 153.786 29.4742 153.475 28.5631C152.613 26.2135 150.53 24.7989 147.921 24.7989C144.21 24.7989 141.936 27.4842 141.936 31.8238C141.936 35.9717 144.186 38.5131 147.849 38.5131C150.746 38.5131 153.092 36.8827 153.834 34.3173H150.53C150.123 35.3483 149.19 35.9477 147.969 35.9477C147.011 35.9477 146.245 35.5401 145.766 34.8208C145.455 34.3413 145.335 33.7659 145.288 32.5431H153.953ZM145.335 30.3134C145.551 28.3234 146.389 27.3643 147.873 27.3643C149.405 27.3643 150.315 28.3953 150.482 30.3134H145.335ZM156.219 25.0147V37.9617H159.571V30.1935C159.571 28.659 160.624 27.652 162.276 27.652C163.712 27.652 164.43 28.4432 164.43 29.9777V37.9617H167.782V29.2824C167.782 26.4053 166.226 24.7989 163.449 24.7989C161.701 24.7989 160.528 25.4223 159.571 26.8848V25.0147H156.219ZM181.371 32.1116L183.166 30.2414L188.888 37.9617H193.173L185.464 28.0117L192.43 20.4833H188.193L181.371 28.1555V20.4833H177.78V37.9617H181.371V32.1116ZM199.077 25.0147H195.726V37.9617H199.077V25.0147ZM199.077 20.4833H195.726V23.4802H199.077V20.4833ZM208.828 25.2784H206.961V21.8019H203.61V25.2784H201.958V27.5082H203.61V35.4682C203.61 37.5061 204.687 38.5131 206.889 38.5131C207.655 38.5131 208.206 38.4412 208.828 38.2494V35.8997C208.493 35.9477 208.326 35.9717 208.062 35.9717C207.176 35.9717 206.961 35.7079 206.961 34.5571V27.5082H208.828V25.2784ZM217.965 25.2784H216.098V21.8019H212.746V25.2784H211.094V27.5082H212.746V35.4682C212.746 37.5061 213.823 38.5131 216.026 38.5131C216.792 38.5131 217.342 38.4412 217.965 38.2494V35.8997C217.63 35.9477 217.462 35.9717 217.199 35.9717C216.313 35.9717 216.098 35.7079 216.098 34.5571V27.5082H217.965V25.2784ZM229.329 25.0147L226.647 34.4372L223.799 25.0147H220.112L224.924 38.4891C224.924 39.8318 224.086 40.7429 222.841 40.7429C222.578 40.7429 222.362 40.6949 221.956 40.599V43.1165C222.458 43.1884 222.745 43.2124 223.152 43.2124C224.014 43.2124 224.972 43.0445 225.57 42.8048C226.504 42.4212 226.911 41.8937 227.461 40.3353L232.776 25.0147H229.329ZM98.7702 62.409L99.9192 65.9335H103.606L97.5733 48.4551H93.5995L87.3994 65.9335H91.062L92.235 62.409H98.7702ZM97.7887 59.412H93.2404L95.5146 52.5789L97.7887 59.412ZM118.598 65.9335L122.261 52.9865H118.79L116.827 62.0494L114.888 52.9865H111.536L109.573 62.0494L107.515 52.9865H104.044L107.682 65.9335H111.129L113.188 56.7987L115.127 65.9335H118.598ZM135.391 65.5259C134.817 64.9744 134.625 64.5908 134.625 63.9435V56.7507C134.625 54.1134 132.83 52.7707 129.335 52.7707C125.84 52.7707 124.02 54.2572 123.805 57.2542H127.037C127.204 55.9116 127.755 55.48 129.406 55.48C130.699 55.48 131.345 55.9116 131.345 56.7747C131.345 57.2063 131.13 57.5659 130.771 57.7817C130.316 58.0214 130.316 58.0214 128.664 58.2852L127.324 58.5249C124.762 58.9565 123.518 60.2752 123.518 62.6008C123.518 64.9265 125.074 66.4849 127.443 66.4849C128.88 66.4849 130.172 65.8855 131.369 64.6388C131.369 65.3101 131.441 65.5499 131.752 65.9335H135.391V65.5259ZM131.345 60.7307C131.345 62.6728 130.388 63.7756 128.688 63.7756C127.563 63.7756 126.869 63.1762 126.869 62.2172C126.869 61.2102 127.396 60.7307 128.784 60.443L129.933 60.2272C130.819 60.0594 130.962 60.0114 131.345 59.8196V60.7307ZM138.136 52.9865V65.9335H141.487V59.0524C141.487 57.0864 142.469 56.1034 144.432 56.1034C144.791 56.1034 145.03 56.1274 145.485 56.1993V52.7947C145.294 52.7707 145.222 52.7707 145.078 52.7707C143.546 52.7707 142.229 53.7777 141.487 55.528V52.9865H138.136ZM156.106 65.9335H159.457V48.4551H156.106V54.6648C155.268 53.3701 154.167 52.7707 152.539 52.7707C149.451 52.7707 147.105 55.7437 147.105 59.6518C147.105 61.402 147.632 63.1762 148.493 64.423C149.379 65.6937 150.959 66.4849 152.539 66.4849C154.167 66.4849 155.268 65.9095 156.106 64.6148V65.9335ZM153.281 55.5759C154.981 55.5759 156.106 57.2063 156.106 59.6997C156.106 62.0494 154.957 63.6797 153.281 63.6797C151.605 63.6797 150.456 62.0254 150.456 59.6518C150.456 57.2302 151.605 55.5759 153.281 55.5759ZM173.613 57.1583C173.565 54.4251 171.458 52.7707 167.987 52.7707C164.708 52.7707 162.673 54.4251 162.673 57.0864C162.673 57.9495 162.936 58.6928 163.391 59.1963C163.846 59.6518 164.253 59.8676 165.498 60.2752L169.495 61.5219C170.333 61.7856 170.62 62.0494 170.62 62.5769C170.62 63.3681 169.687 63.8476 168.131 63.8476C167.245 63.8476 166.575 63.7037 166.144 63.392C165.785 63.1283 165.641 62.8646 165.498 62.1693H162.218C162.314 65.0224 164.396 66.4849 168.322 66.4849C170.118 66.4849 171.482 66.1013 172.44 65.3341C173.397 64.5668 173.972 63.3681 173.972 62.0973C173.972 60.419 173.134 59.3401 171.434 58.8366L167.197 57.6139C166.264 57.3261 166.024 57.1343 166.024 56.6069C166.024 55.8876 166.79 55.4081 167.963 55.4081C169.567 55.4081 170.357 55.9835 170.381 57.1583H173.613ZM194.703 62.9365H187.497C187.952 62.0254 188.479 61.5219 190.968 59.7237C193.913 57.5659 194.774 56.2952 194.774 53.9695C194.774 50.6848 192.5 48.575 188.957 48.575C185.438 48.575 183.38 50.6609 183.38 54.2572V54.8566H186.611V54.3052C186.611 52.4111 187.497 51.3082 189.029 51.3082C190.513 51.3082 191.423 52.3392 191.423 54.0415C191.423 55.9355 190.848 56.6308 187.066 59.3161C184.194 61.2822 183.308 62.7687 183.164 65.9335H194.703V62.9365ZM204.438 48.575C202.618 48.575 201.062 49.3422 200.033 50.7568C199.051 52.0754 198.597 54.2333 198.597 57.5419C198.597 60.5629 198.98 62.6728 199.793 63.9674C200.799 65.5978 202.451 66.4849 204.438 66.4849C206.281 66.4849 207.789 65.7417 208.842 64.3271C209.8 63.0084 210.279 60.8266 210.279 57.6378C210.279 54.521 209.896 52.4111 209.082 51.0924C208.076 49.4621 206.424 48.575 204.438 48.575ZM204.438 51.2842C205.299 51.2842 205.994 51.7637 206.4 52.6509C206.736 53.3701 206.927 55.2163 206.927 57.5659C206.927 59.484 206.76 61.3541 206.496 62.0494C206.113 63.0564 205.395 63.6078 204.438 63.6078C203.552 63.6078 202.882 63.1523 202.475 62.2891C202.139 61.5699 201.948 59.7957 201.948 57.518C201.948 55.504 202.116 53.5859 202.379 52.8906C202.738 51.8597 203.48 51.2842 204.438 51.2842ZM225.615 62.9365H218.41C218.864 62.0254 219.391 61.5219 221.881 59.7237C224.825 57.5659 225.687 56.2952 225.687 53.9695C225.687 50.6848 223.413 48.575 219.87 48.575C216.351 48.575 214.292 50.6609 214.292 54.2572V54.8566H217.524V54.3052C217.524 52.4111 218.41 51.3082 219.942 51.3082C221.426 51.3082 222.336 52.3392 222.336 54.0415C222.336 55.9355 221.761 56.6308 217.979 59.3161C215.106 61.2822 214.22 62.7687 214.077 65.9335H225.615V62.9365ZM241.07 62.9365H233.865C234.32 62.0254 234.846 61.5219 237.336 59.7237C240.28 57.5659 241.142 56.2952 241.142 53.9695C241.142 50.6848 238.868 48.575 235.325 48.575C231.806 48.575 229.747 50.6609 229.747 54.2572V54.8566H232.979V54.3052C232.979 52.4111 233.865 51.3082 235.397 51.3082C236.881 51.3082 237.791 52.3392 237.791 54.0415C237.791 55.9355 237.216 56.6308 233.434 59.3161C230.561 61.2822 229.676 62.7687 229.532 65.9335H241.07V62.9365Z" fill="#252C3F"/>
</g>
</g>
<defs>
<clipPath id="clip0_1091_1102">
<rect width="389" height="84.9145" fill="white"/>
</clipPath>
</defs>
</svg>
