<svg width="546" height="132" viewBox="0 0 546 132" fill="none" xmlns="http://www.w3.org/2000/svg">
<rect y="-0.000244141" width="546" height="132" rx="23" fill="url(#paint0_radial_1091_1205)"/>
<g clip-path="url(#clip0_1091_1205)" filter="url(#filter0_d_1091_1205)">
<path d="M407 27.9998V105.401C407 109.041 409.93 112 413.549 112H496.451C500.064 112 503 109.048 503 105.401L502.994 27.9998H407ZM444.091 37.2395H465.903C468.316 37.2395 470.267 39.2059 470.267 41.6368C470.267 44.0614 468.316 46.0342 465.903 46.0342H444.091C441.678 46.0342 439.727 44.0677 439.727 41.6368C439.727 39.2059 441.678 37.2395 444.091 37.2395Z" fill="#F1F3F4"/>
<path d="M407 27.9998V105.401C407 109.041 409.93 112 413.549 112H496.451C500.064 112 503 109.048 503 105.401L502.994 27.9998H407ZM444.091 37.2395H465.903C468.316 37.2395 470.267 39.2059 470.267 41.6368C470.267 44.0614 468.316 46.0342 465.903 46.0342H444.091C441.678 46.0342 439.727 44.0677 439.727 41.6368C439.727 39.2059 441.678 37.2395 444.091 37.2395Z" fill="#F1F3F4"/>
<path d="M407 27.9998V70.2222H502.994V27.9998H407ZM444.091 37.2395H465.903C468.316 37.2395 470.267 39.2059 470.267 41.6368C470.267 44.0614 468.316 46.0342 465.903 46.0342H444.091C441.678 46.0342 439.727 44.0677 439.727 41.6368C439.727 39.2059 441.678 37.2395 444.091 37.2395Z" fill="#E8EAED"/>
<path d="M454.997 63.6299C439.657 63.6299 426.269 72.0239 419.101 84.5093L424.817 102.079L433.638 112H439.256L454.997 84.5155L490.894 84.5092C483.726 72.0239 470.337 63.6299 454.997 63.6299Z" fill="url(#paint1_linear_1091_1205)"/>
<path d="M419.1 84.5093C414.385 92.7598 412.557 102.488 414.064 112H434.847L419.1 84.5093Z" fill="url(#paint2_linear_1091_1205)"/>
<path d="M454.997 84.5156L470.744 112H495.93C497.437 102.491 495.609 92.7657 490.894 84.5156H454.997Z" fill="url(#paint3_linear_1091_1205)"/>
<path d="M454.997 84.5156C443.553 84.5156 434.275 93.8666 434.275 105.401C434.275 107.708 434.653 109.925 435.339 112H474.654C475.34 109.925 475.718 107.708 475.718 105.401C475.718 93.8666 466.44 84.5156 454.997 84.5156Z" fill="#F1F3F4"/>
<path d="M454.997 88.4294C452.786 88.4294 450.597 88.8684 448.554 89.7213C446.511 90.5742 444.655 91.8243 443.092 93.4003C441.528 94.9763 440.288 96.8473 439.442 98.9064C438.596 100.965 438.16 103.172 438.16 105.401C438.17 107.67 438.631 109.914 439.516 112H470.478C471.363 109.914 471.824 107.67 471.834 105.401C471.834 103.172 471.398 100.965 470.552 98.9064C469.706 96.8473 468.466 94.9763 466.903 93.4003C465.339 91.8243 463.483 90.5742 461.44 89.7213C459.398 88.8684 457.208 88.4294 454.997 88.4294Z" fill="#1A73E8"/>
<path opacity="0.1" d="M502.994 70.2224H407V70.7697H502.994V70.2224Z" fill="#BDC1C6"/>
<path opacity="0.1" d="M502.994 69.6689H407V70.2162H502.994V69.6689Z" fill="#BDC1C6"/>
</g>
<path opacity="0.7" d="M242.224 94.2478C244.256 92.6158 245.848 91.2798 247 90.2398C248.152 89.1838 249.12 88.0878 249.904 86.9518C250.704 85.7998 251.104 84.6718 251.104 83.5678C251.104 82.5278 250.848 81.7118 250.336 81.1198C249.84 80.5118 249.032 80.2078 247.912 80.2078C246.824 80.2078 245.976 80.5518 245.368 81.2398C244.776 81.9118 244.456 82.8158 244.408 83.9518H242.296C242.36 82.1598 242.904 80.7758 243.928 79.7998C244.952 78.8238 246.272 78.3358 247.888 78.3358C249.536 78.3358 250.84 78.7918 251.8 79.7038C252.776 80.6158 253.264 81.8718 253.264 83.4718C253.264 84.7998 252.864 86.0958 252.064 87.3598C251.28 88.6078 250.384 89.7118 249.376 90.6718C248.368 91.6158 247.08 92.7198 245.512 93.9838H253.768V95.8078H242.224V94.2478ZM256.293 87.1438C256.293 84.3918 256.741 82.2478 257.637 80.7118C258.533 79.1598 260.101 78.3838 262.341 78.3838C264.565 78.3838 266.125 79.1598 267.021 80.7118C267.917 82.2478 268.365 84.3918 268.365 87.1438C268.365 89.9438 267.917 92.1198 267.021 93.6718C266.125 95.2238 264.565 95.9998 262.341 95.9998C260.101 95.9998 258.533 95.2238 257.637 93.6718C256.741 92.1198 256.293 89.9438 256.293 87.1438ZM266.205 87.1438C266.205 85.7518 266.109 84.5758 265.917 83.6158C265.741 82.6398 265.365 81.8558 264.789 81.2638C264.229 80.6718 263.413 80.3758 262.341 80.3758C261.253 80.3758 260.421 80.6718 259.845 81.2638C259.285 81.8558 258.909 82.6398 258.717 83.6158C258.541 84.5758 258.453 85.7518 258.453 87.1438C258.453 88.5838 258.541 89.7918 258.717 90.7678C258.909 91.7438 259.285 92.5278 259.845 93.1198C260.421 93.7118 261.253 94.0078 262.341 94.0078C263.413 94.0078 264.229 93.7118 264.789 93.1198C265.365 92.5278 265.741 91.7438 265.917 90.7678C266.109 89.7918 266.205 88.5838 266.205 87.1438ZM271.363 87.1438C271.363 84.3918 271.811 82.2478 272.707 80.7118C273.603 79.1598 275.171 78.3838 277.411 78.3838C279.635 78.3838 281.195 79.1598 282.091 80.7118C282.987 82.2478 283.435 84.3918 283.435 87.1438C283.435 89.9438 282.987 92.1198 282.091 93.6718C281.195 95.2238 279.635 95.9998 277.411 95.9998C275.171 95.9998 273.603 95.2238 272.707 93.6718C271.811 92.1198 271.363 89.9438 271.363 87.1438ZM281.275 87.1438C281.275 85.7518 281.179 84.5758 280.987 83.6158C280.811 82.6398 280.435 81.8558 279.859 81.2638C279.299 80.6718 278.483 80.3758 277.411 80.3758C276.323 80.3758 275.491 80.6718 274.915 81.2638C274.355 81.8558 273.979 82.6398 273.787 83.6158C273.611 84.5758 273.523 85.7518 273.523 87.1438C273.523 88.5838 273.611 89.7918 273.787 90.7678C273.979 91.7438 274.355 92.5278 274.915 93.1198C275.491 93.7118 276.323 94.0078 277.411 94.0078C278.483 94.0078 279.299 93.7118 279.859 93.1198C280.435 92.5278 280.811 91.7438 280.987 90.7678C281.179 89.7918 281.275 88.5838 281.275 87.1438ZM295.865 95.9998L288.977 88.3678V95.9998H286.793V79.2718H288.977V87.0238L295.889 79.2718H298.649L291.065 87.6478L298.721 95.9998H295.865ZM313.641 88.1518H308.529V93.3358H306.489V88.1518H301.401V86.3038H306.489V81.0958H308.529V86.3038H313.641V88.1518ZM335.606 82.8478V95.9998H333.422V94.0558C333.006 94.7278 332.422 95.2558 331.67 95.6398C330.934 96.0078 330.118 96.1918 329.222 96.1918C328.198 96.1918 327.278 95.9838 326.462 95.5678C325.646 95.1358 324.998 94.4958 324.518 93.6478C324.054 92.7998 323.822 91.7678 323.822 90.5518V82.8478H325.982V90.2638C325.982 91.5598 326.31 92.5598 326.966 93.2638C327.622 93.9518 328.518 94.2958 329.654 94.2958C330.822 94.2958 331.742 93.9358 332.414 93.2158C333.086 92.4958 333.422 91.4478 333.422 90.0718V82.8478H335.606ZM343.949 96.2158C342.941 96.2158 342.037 96.0478 341.237 95.7118C340.437 95.3598 339.805 94.8798 339.341 94.2718C338.877 93.6478 338.621 92.9358 338.573 92.1358H340.829C340.893 92.7918 341.197 93.3278 341.741 93.7438C342.301 94.1598 343.029 94.3678 343.925 94.3678C344.757 94.3678 345.413 94.1838 345.893 93.8158C346.373 93.4478 346.613 92.9838 346.613 92.4238C346.613 91.8478 346.357 91.4238 345.845 91.1518C345.333 90.8638 344.541 90.5838 343.469 90.3118C342.493 90.0558 341.693 89.7998 341.069 89.5438C340.461 89.2718 339.933 88.8798 339.485 88.3678C339.053 87.8398 338.837 87.1518 338.837 86.3038C338.837 85.6318 339.037 85.0158 339.437 84.4558C339.837 83.8958 340.405 83.4558 341.141 83.1358C341.877 82.7998 342.717 82.6318 343.661 82.6318C345.117 82.6318 346.293 82.9998 347.189 83.7358C348.085 84.4718 348.565 85.4798 348.629 86.7598H346.445C346.397 86.0718 346.117 85.5198 345.605 85.1038C345.109 84.6878 344.437 84.4798 343.589 84.4798C342.805 84.4798 342.181 84.6478 341.717 84.9838C341.253 85.3198 341.021 85.7598 341.021 86.3038C341.021 86.7358 341.157 87.0958 341.429 87.3838C341.717 87.6558 342.069 87.8798 342.485 88.0558C342.917 88.2158 343.509 88.3998 344.261 88.6078C345.205 88.8638 345.973 89.1198 346.565 89.3758C347.157 89.6158 347.661 89.9838 348.077 90.4798C348.509 90.9758 348.733 91.6238 348.749 92.4238C348.749 93.1438 348.549 93.7918 348.149 94.3678C347.749 94.9438 347.181 95.3998 346.445 95.7358C345.725 96.0558 344.893 96.2158 343.949 96.2158ZM363.832 88.9198C363.832 89.3358 363.808 89.7758 363.76 90.2398H353.248C353.328 91.5358 353.768 92.5518 354.568 93.2878C355.384 94.0078 356.368 94.3678 357.52 94.3678C358.464 94.3678 359.248 94.1518 359.872 93.7198C360.512 93.2718 360.96 92.6798 361.216 91.9438H363.568C363.216 93.2078 362.512 94.2398 361.456 95.0398C360.4 95.8238 359.088 96.2158 357.52 96.2158C356.272 96.2158 355.152 95.9358 354.16 95.3758C353.184 94.8158 352.416 94.0238 351.856 92.9998C351.296 91.9598 351.016 90.7598 351.016 89.3998C351.016 88.0398 351.288 86.8478 351.832 85.8238C352.376 84.7998 353.136 84.0158 354.112 83.4718C355.104 82.9118 356.24 82.6318 357.52 82.6318C358.768 82.6318 359.872 82.9038 360.832 83.4478C361.792 83.9918 362.528 84.7438 363.04 85.7038C363.568 86.6478 363.832 87.7198 363.832 88.9198ZM361.576 88.4638C361.576 87.6318 361.392 86.9198 361.024 86.3278C360.656 85.7198 360.152 85.2638 359.512 84.9598C358.888 84.6398 358.192 84.4798 357.424 84.4798C356.32 84.4798 355.376 84.8318 354.592 85.5358C353.824 86.2398 353.384 87.2158 353.272 88.4638H361.576ZM368.899 84.9838C369.283 84.2318 369.827 83.6478 370.531 83.2318C371.251 82.8158 372.123 82.6078 373.147 82.6078V84.8638H372.571C370.123 84.8638 368.899 86.1918 368.899 88.8478V95.9998H366.715V82.8478H368.899V84.9838ZM380.324 96.2158C379.316 96.2158 378.412 96.0478 377.612 95.7118C376.812 95.3598 376.18 94.8798 375.716 94.2718C375.252 93.6478 374.996 92.9358 374.948 92.1358H377.204C377.268 92.7918 377.572 93.3278 378.116 93.7438C378.676 94.1598 379.404 94.3678 380.3 94.3678C381.132 94.3678 381.788 94.1838 382.268 93.8158C382.748 93.4478 382.988 92.9838 382.988 92.4238C382.988 91.8478 382.732 91.4238 382.22 91.1518C381.708 90.8638 380.916 90.5838 379.844 90.3118C378.868 90.0558 378.068 89.7998 377.444 89.5438C376.836 89.2718 376.308 88.8798 375.86 88.3678C375.428 87.8398 375.212 87.1518 375.212 86.3038C375.212 85.6318 375.412 85.0158 375.812 84.4558C376.212 83.8958 376.78 83.4558 377.516 83.1358C378.252 82.7998 379.092 82.6318 380.036 82.6318C381.492 82.6318 382.668 82.9998 383.564 83.7358C384.46 84.4718 384.94 85.4798 385.004 86.7598H382.82C382.772 86.0718 382.492 85.5198 381.98 85.1038C381.484 84.6878 380.812 84.4798 379.964 84.4798C379.18 84.4798 378.556 84.6478 378.092 84.9838C377.628 85.3198 377.396 85.7598 377.396 86.3038C377.396 86.7358 377.532 87.0958 377.804 87.3838C378.092 87.6558 378.444 87.8798 378.86 88.0558C379.292 88.2158 379.884 88.3998 380.636 88.6078C381.58 88.8638 382.348 89.1198 382.94 89.3758C383.532 89.6158 384.036 89.9838 384.452 90.4798C384.884 90.9758 385.108 91.6238 385.124 92.4238C385.124 93.1438 384.924 93.7918 384.524 94.3678C384.124 94.9438 383.556 95.3998 382.82 95.7358C382.1 96.0558 381.268 96.2158 380.324 96.2158Z" fill="#0D1217"/>
<path opacity="0.7" d="M242.224 94.2478C244.256 92.6158 245.848 91.2798 247 90.2398C248.152 89.1838 249.12 88.0878 249.904 86.9518C250.704 85.7998 251.104 84.6718 251.104 83.5678C251.104 82.5278 250.848 81.7118 250.336 81.1198C249.84 80.5118 249.032 80.2078 247.912 80.2078C246.824 80.2078 245.976 80.5518 245.368 81.2398C244.776 81.9118 244.456 82.8158 244.408 83.9518H242.296C242.36 82.1598 242.904 80.7758 243.928 79.7998C244.952 78.8238 246.272 78.3358 247.888 78.3358C249.536 78.3358 250.84 78.7918 251.8 79.7038C252.776 80.6158 253.264 81.8718 253.264 83.4718C253.264 84.7998 252.864 86.0958 252.064 87.3598C251.28 88.6078 250.384 89.7118 249.376 90.6718C248.368 91.6158 247.08 92.7198 245.512 93.9838H253.768V95.8078H242.224V94.2478ZM256.293 87.1438C256.293 84.3918 256.741 82.2478 257.637 80.7118C258.533 79.1598 260.101 78.3838 262.341 78.3838C264.565 78.3838 266.125 79.1598 267.021 80.7118C267.917 82.2478 268.365 84.3918 268.365 87.1438C268.365 89.9438 267.917 92.1198 267.021 93.6718C266.125 95.2238 264.565 95.9998 262.341 95.9998C260.101 95.9998 258.533 95.2238 257.637 93.6718C256.741 92.1198 256.293 89.9438 256.293 87.1438ZM266.205 87.1438C266.205 85.7518 266.109 84.5758 265.917 83.6158C265.741 82.6398 265.365 81.8558 264.789 81.2638C264.229 80.6718 263.413 80.3758 262.341 80.3758C261.253 80.3758 260.421 80.6718 259.845 81.2638C259.285 81.8558 258.909 82.6398 258.717 83.6158C258.541 84.5758 258.453 85.7518 258.453 87.1438C258.453 88.5838 258.541 89.7918 258.717 90.7678C258.909 91.7438 259.285 92.5278 259.845 93.1198C260.421 93.7118 261.253 94.0078 262.341 94.0078C263.413 94.0078 264.229 93.7118 264.789 93.1198C265.365 92.5278 265.741 91.7438 265.917 90.7678C266.109 89.7918 266.205 88.5838 266.205 87.1438ZM271.363 87.1438C271.363 84.3918 271.811 82.2478 272.707 80.7118C273.603 79.1598 275.171 78.3838 277.411 78.3838C279.635 78.3838 281.195 79.1598 282.091 80.7118C282.987 82.2478 283.435 84.3918 283.435 87.1438C283.435 89.9438 282.987 92.1198 282.091 93.6718C281.195 95.2238 279.635 95.9998 277.411 95.9998C275.171 95.9998 273.603 95.2238 272.707 93.6718C271.811 92.1198 271.363 89.9438 271.363 87.1438ZM281.275 87.1438C281.275 85.7518 281.179 84.5758 280.987 83.6158C280.811 82.6398 280.435 81.8558 279.859 81.2638C279.299 80.6718 278.483 80.3758 277.411 80.3758C276.323 80.3758 275.491 80.6718 274.915 81.2638C274.355 81.8558 273.979 82.6398 273.787 83.6158C273.611 84.5758 273.523 85.7518 273.523 87.1438C273.523 88.5838 273.611 89.7918 273.787 90.7678C273.979 91.7438 274.355 92.5278 274.915 93.1198C275.491 93.7118 276.323 94.0078 277.411 94.0078C278.483 94.0078 279.299 93.7118 279.859 93.1198C280.435 92.5278 280.811 91.7438 280.987 90.7678C281.179 89.7918 281.275 88.5838 281.275 87.1438ZM295.865 95.9998L288.977 88.3678V95.9998H286.793V79.2718H288.977V87.0238L295.889 79.2718H298.649L291.065 87.6478L298.721 95.9998H295.865ZM313.641 88.1518H308.529V93.3358H306.489V88.1518H301.401V86.3038H306.489V81.0958H308.529V86.3038H313.641V88.1518ZM335.606 82.8478V95.9998H333.422V94.0558C333.006 94.7278 332.422 95.2558 331.67 95.6398C330.934 96.0078 330.118 96.1918 329.222 96.1918C328.198 96.1918 327.278 95.9838 326.462 95.5678C325.646 95.1358 324.998 94.4958 324.518 93.6478C324.054 92.7998 323.822 91.7678 323.822 90.5518V82.8478H325.982V90.2638C325.982 91.5598 326.31 92.5598 326.966 93.2638C327.622 93.9518 328.518 94.2958 329.654 94.2958C330.822 94.2958 331.742 93.9358 332.414 93.2158C333.086 92.4958 333.422 91.4478 333.422 90.0718V82.8478H335.606ZM343.949 96.2158C342.941 96.2158 342.037 96.0478 341.237 95.7118C340.437 95.3598 339.805 94.8798 339.341 94.2718C338.877 93.6478 338.621 92.9358 338.573 92.1358H340.829C340.893 92.7918 341.197 93.3278 341.741 93.7438C342.301 94.1598 343.029 94.3678 343.925 94.3678C344.757 94.3678 345.413 94.1838 345.893 93.8158C346.373 93.4478 346.613 92.9838 346.613 92.4238C346.613 91.8478 346.357 91.4238 345.845 91.1518C345.333 90.8638 344.541 90.5838 343.469 90.3118C342.493 90.0558 341.693 89.7998 341.069 89.5438C340.461 89.2718 339.933 88.8798 339.485 88.3678C339.053 87.8398 338.837 87.1518 338.837 86.3038C338.837 85.6318 339.037 85.0158 339.437 84.4558C339.837 83.8958 340.405 83.4558 341.141 83.1358C341.877 82.7998 342.717 82.6318 343.661 82.6318C345.117 82.6318 346.293 82.9998 347.189 83.7358C348.085 84.4718 348.565 85.4798 348.629 86.7598H346.445C346.397 86.0718 346.117 85.5198 345.605 85.1038C345.109 84.6878 344.437 84.4798 343.589 84.4798C342.805 84.4798 342.181 84.6478 341.717 84.9838C341.253 85.3198 341.021 85.7598 341.021 86.3038C341.021 86.7358 341.157 87.0958 341.429 87.3838C341.717 87.6558 342.069 87.8798 342.485 88.0558C342.917 88.2158 343.509 88.3998 344.261 88.6078C345.205 88.8638 345.973 89.1198 346.565 89.3758C347.157 89.6158 347.661 89.9838 348.077 90.4798C348.509 90.9758 348.733 91.6238 348.749 92.4238C348.749 93.1438 348.549 93.7918 348.149 94.3678C347.749 94.9438 347.181 95.3998 346.445 95.7358C345.725 96.0558 344.893 96.2158 343.949 96.2158ZM363.832 88.9198C363.832 89.3358 363.808 89.7758 363.76 90.2398H353.248C353.328 91.5358 353.768 92.5518 354.568 93.2878C355.384 94.0078 356.368 94.3678 357.52 94.3678C358.464 94.3678 359.248 94.1518 359.872 93.7198C360.512 93.2718 360.96 92.6798 361.216 91.9438H363.568C363.216 93.2078 362.512 94.2398 361.456 95.0398C360.4 95.8238 359.088 96.2158 357.52 96.2158C356.272 96.2158 355.152 95.9358 354.16 95.3758C353.184 94.8158 352.416 94.0238 351.856 92.9998C351.296 91.9598 351.016 90.7598 351.016 89.3998C351.016 88.0398 351.288 86.8478 351.832 85.8238C352.376 84.7998 353.136 84.0158 354.112 83.4718C355.104 82.9118 356.24 82.6318 357.52 82.6318C358.768 82.6318 359.872 82.9038 360.832 83.4478C361.792 83.9918 362.528 84.7438 363.04 85.7038C363.568 86.6478 363.832 87.7198 363.832 88.9198ZM361.576 88.4638C361.576 87.6318 361.392 86.9198 361.024 86.3278C360.656 85.7198 360.152 85.2638 359.512 84.9598C358.888 84.6398 358.192 84.4798 357.424 84.4798C356.32 84.4798 355.376 84.8318 354.592 85.5358C353.824 86.2398 353.384 87.2158 353.272 88.4638H361.576ZM368.899 84.9838C369.283 84.2318 369.827 83.6478 370.531 83.2318C371.251 82.8158 372.123 82.6078 373.147 82.6078V84.8638H372.571C370.123 84.8638 368.899 86.1918 368.899 88.8478V95.9998H366.715V82.8478H368.899V84.9838ZM380.324 96.2158C379.316 96.2158 378.412 96.0478 377.612 95.7118C376.812 95.3598 376.18 94.8798 375.716 94.2718C375.252 93.6478 374.996 92.9358 374.948 92.1358H377.204C377.268 92.7918 377.572 93.3278 378.116 93.7438C378.676 94.1598 379.404 94.3678 380.3 94.3678C381.132 94.3678 381.788 94.1838 382.268 93.8158C382.748 93.4478 382.988 92.9838 382.988 92.4238C382.988 91.8478 382.732 91.4238 382.22 91.1518C381.708 90.8638 380.916 90.5838 379.844 90.3118C378.868 90.0558 378.068 89.7998 377.444 89.5438C376.836 89.2718 376.308 88.8798 375.86 88.3678C375.428 87.8398 375.212 87.1518 375.212 86.3038C375.212 85.6318 375.412 85.0158 375.812 84.4558C376.212 83.8958 376.78 83.4558 377.516 83.1358C378.252 82.7998 379.092 82.6318 380.036 82.6318C381.492 82.6318 382.668 82.9998 383.564 83.7358C384.46 84.4718 384.94 85.4798 385.004 86.7598H382.82C382.772 86.0718 382.492 85.5198 381.98 85.1038C381.484 84.6878 380.812 84.4798 379.964 84.4798C379.18 84.4798 378.556 84.6478 378.092 84.9838C377.628 85.3198 377.396 85.7598 377.396 86.3038C377.396 86.7358 377.532 87.0958 377.804 87.3838C378.092 87.6558 378.444 87.8798 378.86 88.0558C379.292 88.2158 379.884 88.3998 380.636 88.6078C381.58 88.8638 382.348 89.1198 382.94 89.3758C383.532 89.6158 384.036 89.9838 384.452 90.4798C384.884 90.9758 385.108 91.6238 385.124 92.4238C385.124 93.1438 384.924 93.7918 384.524 94.3678C384.124 94.9438 383.556 95.3998 382.82 95.7358C382.1 96.0558 381.268 96.2158 380.324 96.2158Z" fill="#0D1217"/>
<path d="M46.756 38.0118V33.5598H54.512V53.9998H49.528V38.0118H46.756ZM63.4153 49.5758L60.3073 57.6118H57.2553L58.8793 49.5758H63.4153ZM78.8744 37.1438L71.8464 53.9998H66.9464L74.0584 37.6758H65.3504V33.5878H78.8744V37.1438ZM80.8108 43.4998C80.8108 40.2891 81.4268 37.7598 82.6588 35.9118C83.9094 34.0638 85.9161 33.1398 88.6788 33.1398C91.4414 33.1398 93.4388 34.0638 94.6708 35.9118C95.9214 37.7598 96.5468 40.2891 96.5468 43.4998C96.5468 46.7478 95.9214 49.2958 94.6708 51.1438C93.4388 52.9918 91.4414 53.9158 88.6788 53.9158C85.9161 53.9158 83.9094 52.9918 82.6588 51.1438C81.4268 49.2958 80.8108 46.7478 80.8108 43.4998ZM91.8428 43.4998C91.8428 41.6144 91.6374 40.1678 91.2268 39.1598C90.8161 38.1331 89.9668 37.6198 88.6788 37.6198C87.3908 37.6198 86.5414 38.1331 86.1308 39.1598C85.7201 40.1678 85.5148 41.6144 85.5148 43.4998C85.5148 44.7691 85.5894 45.8238 85.7388 46.6638C85.8881 47.4851 86.1868 48.1571 86.6348 48.6798C87.1014 49.1838 87.7828 49.4358 88.6788 49.4358C89.5748 49.4358 90.2468 49.1838 90.6948 48.6798C91.1614 48.1571 91.4694 47.4851 91.6188 46.6638C91.7681 45.8238 91.8428 44.7691 91.8428 43.4998ZM99.0764 43.4998C99.0764 40.2891 99.6924 37.7598 100.924 35.9118C102.175 34.0638 104.182 33.1398 106.944 33.1398C109.707 33.1398 111.704 34.0638 112.936 35.9118C114.187 37.7598 114.812 40.2891 114.812 43.4998C114.812 46.7478 114.187 49.2958 112.936 51.1438C111.704 52.9918 109.707 53.9158 106.944 53.9158C104.182 53.9158 102.175 52.9918 100.924 51.1438C99.6924 49.2958 99.0764 46.7478 99.0764 43.4998ZM110.108 43.4998C110.108 41.6144 109.903 40.1678 109.492 39.1598C109.082 38.1331 108.232 37.6198 106.944 37.6198C105.656 37.6198 104.807 38.1331 104.396 39.1598C103.986 40.1678 103.78 41.6144 103.78 43.4998C103.78 44.7691 103.855 45.8238 104.004 46.6638C104.154 47.4851 104.452 48.1571 104.9 48.6798C105.367 49.1838 106.048 49.4358 106.944 49.4358C107.84 49.4358 108.512 49.1838 108.96 48.6798C109.427 48.1571 109.735 47.4851 109.884 46.6638C110.034 45.8238 110.108 44.7691 110.108 43.4998ZM132.014 46.3558H127.142V51.3398H122.606V46.3558H117.734V42.0718H122.606V37.0598H127.142V42.0718H132.014V46.3558ZM145.833 41.1478C146.281 40.2704 146.916 39.5891 147.737 39.1038C148.577 38.6184 149.594 38.3758 150.789 38.3758V41.0078H150.117C147.261 41.0078 145.833 42.5571 145.833 45.6558V53.9998H143.285V38.6558H145.833V41.1478ZM167.73 45.7398C167.73 46.2251 167.702 46.7384 167.646 47.2798H155.382C155.476 48.7918 155.989 49.9771 156.922 50.8358C157.874 51.6758 159.022 52.0958 160.366 52.0958C161.468 52.0958 162.382 51.8438 163.11 51.3398C163.857 50.8171 164.38 50.1264 164.678 49.2678H167.422C167.012 50.7424 166.19 51.9464 164.958 52.8798C163.726 53.7944 162.196 54.2518 160.366 54.2518C158.91 54.2518 157.604 53.9251 156.446 53.2718C155.308 52.6184 154.412 51.6944 153.758 50.4998C153.105 49.2864 152.778 47.8864 152.778 46.2998C152.778 44.7131 153.096 43.3224 153.73 42.1278C154.365 40.9331 155.252 40.0184 156.39 39.3838C157.548 38.7304 158.873 38.4038 160.366 38.4038C161.822 38.4038 163.11 38.7211 164.23 39.3558C165.35 39.9904 166.209 40.8678 166.806 41.9878C167.422 43.0891 167.73 44.3398 167.73 45.7398ZM165.098 45.2078C165.098 44.2371 164.884 43.4064 164.454 42.7158C164.025 42.0064 163.437 41.4744 162.69 41.1198C161.962 40.7464 161.15 40.5598 160.254 40.5598C158.966 40.5598 157.865 40.9704 156.95 41.7918C156.054 42.6131 155.541 43.7518 155.41 45.2078H165.098ZM176.806 51.6478L181.566 38.6558H184.282L178.262 53.9998H175.294L169.274 38.6558H172.018L176.806 51.6478ZM188.105 36.1638C187.619 36.1638 187.209 35.9958 186.873 35.6598C186.537 35.3238 186.369 34.9131 186.369 34.4278C186.369 33.9424 186.537 33.5318 186.873 33.1958C187.209 32.8598 187.619 32.6918 188.105 32.6918C188.571 32.6918 188.963 32.8598 189.281 33.1958C189.617 33.5318 189.785 33.9424 189.785 34.4278C189.785 34.9131 189.617 35.3238 189.281 35.6598C188.963 35.9958 188.571 36.1638 188.105 36.1638ZM189.337 38.6558V53.9998H186.789V38.6558H189.337ZM207.679 45.7398C207.679 46.2251 207.651 46.7384 207.595 47.2798H195.331C195.425 48.7918 195.938 49.9771 196.871 50.8358C197.823 51.6758 198.971 52.0958 200.315 52.0958C201.417 52.0958 202.331 51.8438 203.059 51.3398C203.806 50.8171 204.329 50.1264 204.627 49.2678H207.371C206.961 50.7424 206.139 51.9464 204.907 52.8798C203.675 53.7944 202.145 54.2518 200.315 54.2518C198.859 54.2518 197.553 53.9251 196.395 53.2718C195.257 52.6184 194.361 51.6944 193.707 50.4998C193.054 49.2864 192.727 47.8864 192.727 46.2998C192.727 44.7131 193.045 43.3224 193.679 42.1278C194.314 40.9331 195.201 40.0184 196.339 39.3838C197.497 38.7304 198.822 38.4038 200.315 38.4038C201.771 38.4038 203.059 38.7211 204.179 39.3558C205.299 39.9904 206.158 40.8678 206.755 41.9878C207.371 43.0891 207.679 44.3398 207.679 45.7398ZM205.047 45.2078C205.047 44.2371 204.833 43.4064 204.403 42.7158C203.974 42.0064 203.386 41.4744 202.639 41.1198C201.911 40.7464 201.099 40.5598 200.203 40.5598C198.915 40.5598 197.814 40.9704 196.899 41.7918C196.003 42.6131 195.49 43.7518 195.359 45.2078H205.047ZM231.483 38.6558L226.695 53.9998H224.063L220.367 41.8198L216.671 53.9998H214.039L209.223 38.6558H211.827L215.355 51.5358L219.163 38.6558H221.767L225.491 51.5638L228.963 38.6558H231.483ZM239.443 54.2518C238.267 54.2518 237.213 54.0558 236.279 53.6638C235.346 53.2531 234.609 52.6931 234.067 51.9838C233.526 51.2558 233.227 50.4251 233.171 49.4918H235.803C235.878 50.2571 236.233 50.8824 236.867 51.3678C237.521 51.8531 238.37 52.0958 239.415 52.0958C240.386 52.0958 241.151 51.8811 241.711 51.4518C242.271 51.0224 242.551 50.4811 242.551 49.8278C242.551 49.1558 242.253 48.6611 241.655 48.3438C241.058 48.0078 240.134 47.6811 238.883 47.3638C237.745 47.0651 236.811 46.7664 236.083 46.4678C235.374 46.1504 234.758 45.6931 234.235 45.0958C233.731 44.4798 233.479 43.6771 233.479 42.6878C233.479 41.9038 233.713 41.1851 234.179 40.5318C234.646 39.8784 235.309 39.3651 236.167 38.9918C237.026 38.5998 238.006 38.4038 239.107 38.4038C240.806 38.4038 242.178 38.8331 243.223 39.6918C244.269 40.5504 244.829 41.7264 244.903 43.2198H242.355C242.299 42.4171 241.973 41.7731 241.375 41.2878C240.797 40.8024 240.013 40.5598 239.023 40.5598C238.109 40.5598 237.381 40.7558 236.839 41.1478C236.298 41.5398 236.027 42.0531 236.027 42.6878C236.027 43.1918 236.186 43.6118 236.503 43.9478C236.839 44.2651 237.25 44.5264 237.735 44.7318C238.239 44.9184 238.93 45.1331 239.807 45.3758C240.909 45.6744 241.805 45.9731 242.495 46.2718C243.186 46.5518 243.774 46.9811 244.259 47.5598C244.763 48.1384 245.025 48.8944 245.043 49.8278C245.043 50.6678 244.81 51.4238 244.343 52.0958C243.877 52.7678 243.214 53.2998 242.355 53.6918C241.515 54.0651 240.545 54.2518 239.443 54.2518Z" fill="#0D1217"/>
<path d="M52.464 99.5438L61.36 93.0478L70.32 99.5438L66.832 89.3678L75.088 83.8318H65.04L61.36 72.9198L57.744 83.8318H47.632L55.888 89.3678L52.464 99.5438ZM89.1828 99.5438L98.0788 93.0478L107.039 99.5438L103.551 89.3678L111.807 83.8318H101.759L98.0788 72.9198L94.4628 83.8318H84.3508L92.6068 89.3678L89.1828 99.5438ZM125.902 99.5438L134.798 93.0478L143.758 99.5438L140.27 89.3678L148.526 83.8318H138.478L134.798 72.9198L131.182 83.8318H121.07L129.326 89.3678L125.902 99.5438ZM162.62 99.5438L171.516 93.0478L180.476 99.5438L176.988 89.3678L185.244 83.8318H175.196L171.516 72.9198L167.9 83.8318H157.788L166.044 89.3678L162.62 99.5438ZM199.339 99.5438L208.235 93.0478L217.195 99.5438L213.707 89.3678L221.963 83.8318H211.915L208.235 72.9198L204.619 83.8318H194.507L202.763 89.3678L199.339 99.5438Z" fill="#F3BC00"/>
<defs>
<filter id="filter0_d_1091_1205" x="403" y="27.9998" width="104" height="92" filterUnits="userSpaceOnUse" color-interpolation-filters="sRGB">
<feFlood flood-opacity="0" result="BackgroundImageFix"/>
<feColorMatrix in="SourceAlpha" type="matrix" values="0 0 0 0 0 0 0 0 0 0 0 0 0 0 0 0 0 0 127 0" result="hardAlpha"/>
<feOffset dy="4"/>
<feGaussianBlur stdDeviation="2"/>
<feComposite in2="hardAlpha" operator="out"/>
<feColorMatrix type="matrix" values="0 0 0 0 0 0 0 0 0 0 0 0 0 0 0 0 0 0 0.25 0"/>
<feBlend mode="normal" in2="BackgroundImageFix" result="effect1_dropShadow_1091_1205"/>
<feBlend mode="normal" in="SourceGraphic" in2="effect1_dropShadow_1091_1205" result="shape"/>
</filter>
<radialGradient id="paint0_radial_1091_1205" cx="0" cy="0" r="1" gradientUnits="userSpaceOnUse" gradientTransform="translate(41.2941 -0.000242419) rotate(15.0356) scale(489.557 273.234)">
<stop offset="0.130208" stop-color="white"/>
<stop offset="1" stop-color="#CFD6E6"/>
</radialGradient>
<linearGradient id="paint1_linear_1091_1205" x1="419.1" y1="89.7366" x2="490.894" y2="89.7366" gradientUnits="userSpaceOnUse">
<stop stop-color="#D93025"/>
<stop offset="1" stop-color="#EA4335"/>
</linearGradient>
<linearGradient id="paint2_linear_1091_1205" x1="459.487" y1="144.562" x2="423.171" y2="82.1405" gradientUnits="userSpaceOnUse">
<stop stop-color="#1E8E3E"/>
<stop offset="1" stop-color="#34A853"/>
</linearGradient>
<linearGradient id="paint3_linear_1091_1205" x1="484.958" y1="84.4311" x2="448.643" y2="146.851" gradientUnits="userSpaceOnUse">
<stop stop-color="#FBBC04"/>
<stop offset="1" stop-color="#FCC934"/>
</linearGradient>
<clipPath id="clip0_1091_1205">
<rect width="96" height="84" fill="white" transform="translate(407 27.9998)"/>
</clipPath>
</defs>
</svg>
