<svg width="81" height="27" viewBox="0 0 81 27" fill="none" xmlns="http://www.w3.org/2000/svg">
<path fill-rule="evenodd" clip-rule="evenodd" d="M20.3252 9.25713H10.9157V12.0254H17.6125C17.2858 15.9071 14.0562 17.5625 11.0078 17.5625C7.10758 17.5625 3.70427 14.4938 3.70427 10.1927C3.70427 6.00283 6.94855 2.776 11.0163 2.776C14.1547 2.776 16.0041 4.77665 16.0041 4.77665L17.9422 2.76954C17.9422 2.76954 15.4545 0 10.9173 0C5.13958 0 0.669922 4.8762 0.669922 10.1433C0.669922 15.3044 4.87445 20.3371 11.0645 20.3371C16.5088 20.3371 20.494 16.6075 20.494 11.0924C20.494 9.92889 20.3252 9.25713 20.3252 9.25713Z" fill="white"/>
<path fill-rule="evenodd" clip-rule="evenodd" d="M28.2898 7.25244C24.4619 7.25244 21.7188 10.245 21.7188 13.7352C21.7188 17.277 24.3795 20.3252 28.3348 20.3252C31.9153 20.3252 34.8487 17.5885 34.8487 13.8113C34.8487 9.48202 31.4365 7.25244 28.2898 7.25244ZM28.3279 9.81988C30.2102 9.81988 31.994 11.3417 31.994 13.794C31.994 16.1943 30.2178 17.7594 28.3192 17.7594C26.2331 17.7594 24.5874 16.0886 24.5874 13.7749C24.5874 11.5109 26.2127 9.81988 28.3279 9.81988Z" fill="white"/>
<path fill-rule="evenodd" clip-rule="evenodd" d="M42.5007 7.25244C38.6729 7.25244 35.9297 10.245 35.9297 13.7352C35.9297 17.277 38.5905 20.3252 42.5457 20.3252C46.1262 20.3252 49.0596 17.5885 49.0596 13.8113C49.0596 9.48202 45.6474 7.25244 42.5007 7.25244ZM42.5388 9.81988C44.4212 9.81988 46.2049 11.3417 46.2049 13.794C46.2049 16.1943 44.4288 17.7594 42.5302 17.7594C40.444 17.7594 38.7983 16.0886 38.7983 13.7749C38.7983 11.5109 40.4236 9.81988 42.5388 9.81988Z" fill="white"/>
<path fill-rule="evenodd" clip-rule="evenodd" d="M56.5174 7.25934C53.0039 7.25934 50.2422 10.3366 50.2422 13.7905C50.2422 17.7249 53.444 20.3338 56.4568 20.3338C58.3198 20.3338 59.3103 19.5944 60.0416 18.7456V20.0344C60.0416 22.2896 58.6724 23.64 56.6057 23.64C54.6091 23.64 53.6076 22.1555 53.2596 21.3131L50.7475 22.3633C51.6387 24.2476 53.4327 26.2127 56.6264 26.2127C60.1198 26.2127 62.7822 24.0124 62.7822 19.3978V7.49069H60.0418V8.75962C59.199 7.8515 58.0467 7.25934 56.5174 7.25934ZM56.7717 9.8216C58.4943 9.8216 60.2631 11.2925 60.2631 13.8044C60.2631 16.3575 58.498 17.7646 56.7336 17.7646C54.8605 17.7646 53.1177 16.2437 53.1177 13.8286C53.1177 11.3191 54.9278 9.8216 56.7717 9.8216Z" fill="white"/>
<path fill-rule="evenodd" clip-rule="evenodd" d="M74.7258 7.24371C71.4116 7.24371 68.6289 9.88056 68.6289 13.7715C68.6289 17.8886 71.7306 20.3303 75.0442 20.3303C77.8097 20.3303 79.5071 18.8173 80.5201 17.4617L78.2605 15.9583C77.6742 16.8683 76.6939 17.7577 75.058 17.7577C73.2204 17.7577 72.3756 16.7513 71.8521 15.7766L80.6165 12.14L80.1615 11.0742C79.3149 8.98707 77.3395 7.24371 74.7258 7.24371ZM74.84 9.75757C76.0342 9.75757 76.8937 10.3925 77.2587 11.1538L71.4057 13.6002C71.1534 11.7062 72.9477 9.75757 74.84 9.75757Z" fill="white"/>
<path fill-rule="evenodd" clip-rule="evenodd" d="M64.6113 19.9422H67.2959V0.675964H64.6113V19.9422Z" fill="white"/>
</svg>
