<svg width="110" height="22" viewBox="0 0 110 22" fill="none" xmlns="http://www.w3.org/2000/svg">
<g clip-path="url(#clip0_923_779)">
<path d="M40.5293 0.695679H44.6606L51.6852 13.4254L58.7098 0.695679H62.7517V21.6129H59.381V5.58144L53.2214 16.6825H50.0595L43.8999 5.58144V21.6129H40.5293V0.695679Z" fill="white"/>
<path d="M73.6238 21.9865C72.0627 21.9865 70.6905 21.6404 69.5075 20.9481C68.3241 20.2559 67.4019 19.2972 66.7408 18.072C66.0795 16.8468 65.7489 15.4424 65.749 13.8587C65.749 12.2551 66.0722 10.8357 66.7184 9.60053C67.3647 8.36559 68.2621 7.39939 69.4105 6.70191C70.559 6.00487 71.8789 5.65625 73.3703 5.65607C74.8517 5.65607 76.1269 6.00716 77.1958 6.70934C78.2645 7.41173 79.0872 8.39536 79.6641 9.66026C80.2407 10.9253 80.529 12.4095 80.5291 14.1127V15.0389H69.0898C69.2987 16.3141 69.8133 17.3176 70.6335 18.0495C71.4538 18.7817 72.4903 19.1477 73.7431 19.1476C74.7473 19.1476 75.6123 18.9982 76.3382 18.6994C77.0639 18.4006 77.745 17.9474 78.3815 17.3399L80.1712 19.5361C78.3912 21.1699 76.2088 21.9867 73.6238 21.9865ZM76.0847 9.57802C75.3786 8.85598 74.4539 8.4949 73.3106 8.49477C72.1969 8.49477 71.2648 8.86336 70.5142 9.60053C69.7634 10.3376 69.2886 11.3287 69.0898 12.5738H77.2928C77.1933 11.2988 76.7906 10.3002 76.0847 9.57802Z" fill="white"/>
<path d="M84.6159 8.79379H81.5137V6.02968H84.6159V1.45782H87.8672V6.02968H92.5801V8.79379H87.8672V15.801C87.8672 16.9663 88.0661 17.798 88.4638 18.2961C88.8613 18.7943 89.5424 19.0433 90.5071 19.0431C90.9344 19.0431 91.2973 19.0257 91.5958 18.9908C91.8941 18.9561 92.2222 18.9088 92.5801 18.8488V21.583C92.1717 21.7013 91.7556 21.7913 91.3348 21.852C90.8533 21.923 90.3673 21.958 89.8806 21.9566C86.3707 21.9566 84.6158 20.0342 84.6159 16.1895V8.79379Z" fill="white"/>
<path d="M109.523 21.6129H106.332V19.4316C105.765 20.2484 105.044 20.8784 104.169 21.3215C103.294 21.7646 102.3 21.9863 101.186 21.9865C99.8142 21.9865 98.5987 21.6354 97.5398 20.9331C96.4809 20.2309 95.6481 19.2647 95.0416 18.0346C94.4351 16.8045 94.1318 15.3975 94.1318 13.8139C94.1318 12.2202 94.4401 10.8107 95.0566 9.58546C95.673 8.36043 96.5255 7.39926 97.6144 6.70191C98.7031 6.00487 99.9534 5.65625 101.365 5.65607C102.429 5.65607 103.384 5.86277 104.229 6.27619C105.063 6.68022 105.785 7.28299 106.332 8.03166V6.02967H109.523V21.6129ZM106.272 11.4831C105.924 10.5966 105.375 9.89679 104.624 9.38376C103.873 8.87085 103.006 8.6144 102.022 8.6144C100.629 8.6144 99.5208 9.08253 98.6957 10.0188C97.8703 10.9551 97.4576 12.2201 97.4578 13.8138C97.4578 15.4176 97.8555 16.6876 98.6509 17.6238C99.4463 18.5601 100.525 19.0283 101.887 19.0282C102.891 19.0282 103.786 18.7692 104.572 18.2512C105.357 17.7335 105.924 17.0363 106.272 16.1595L106.272 11.4831Z" fill="white"/>
<path d="M4.09468 14.5085C4.09468 15.7732 4.37179 16.7442 4.73396 17.3316C5.20883 18.1011 5.91709 18.427 6.63917 18.427C7.57049 18.427 8.42249 18.1955 10.0644 15.9206C11.3797 14.0973 12.9297 11.5379 13.9725 9.93339L15.7386 7.21508C16.9654 5.32723 18.3854 3.22858 20.0135 1.80607C21.3427 0.645031 22.7765 0 24.2194 0C26.642 0 28.9497 1.40638 30.7157 4.04408C32.6485 6.93288 33.5868 10.5715 33.5868 14.3265C33.5868 16.5588 33.1475 18.1989 32.4002 19.4948C31.6781 20.748 30.2708 22 27.9034 22V18.427C29.9304 18.427 30.4363 16.561 30.4363 14.4255C30.4363 11.3824 29.7281 8.00523 28.1678 5.59214C27.0606 3.88052 25.6256 2.83465 24.047 2.83465C22.3395 2.83465 20.9655 4.12471 19.4214 6.42492C18.6004 7.64702 17.7576 9.13633 16.8113 10.8169L15.7696 12.6656C13.677 16.3825 13.147 17.2291 12.1007 18.6263C10.2668 21.0728 8.70074 22 6.63917 22C4.19356 22 2.64709 20.9392 1.68932 19.3404C0.907463 18.0377 0.523438 16.3284 0.523438 14.3806L4.09468 14.5085Z" fill="white"/>
<path d="M3.33887 4.29632C4.97616 1.76805 7.33898 0 10.049 0C11.6185 0 13.1788 0.465344 14.808 1.79802C16.5902 3.25509 18.4896 5.65436 20.8594 9.60859L21.709 11.0277C23.7603 14.4509 24.9273 16.212 25.6103 17.0425C26.4887 18.1091 27.1039 18.427 27.903 18.427C29.93 18.427 30.4359 16.561 30.4359 14.4255L33.5864 14.3265C33.5864 16.5588 33.1471 18.1989 32.3998 19.4948C31.6777 20.748 30.2704 22 27.903 22C26.4312 22 25.1274 21.6798 23.6855 20.3172C22.5771 19.2713 21.2813 17.4134 20.2845 15.7432L17.3192 10.7811C15.8313 8.29088 14.4665 6.43413 13.6766 5.59329C12.8269 4.68911 11.7346 3.59717 9.99155 3.59717C8.58075 3.59717 7.38268 4.5889 6.38006 6.10587L3.33887 4.29632Z" fill="white"/>
<path d="M9.99195 3.59717C8.58116 3.59717 7.38308 4.5889 6.38046 6.10587C4.96277 8.24943 4.09468 11.4423 4.09468 14.5085C4.09468 15.7732 4.37178 16.7442 4.73396 17.3316L1.68932 19.3404C0.907463 18.0377 0.523438 16.3284 0.523438 14.3806C0.523438 10.8387 1.49386 7.14711 3.33927 4.29632C4.97657 1.76805 7.33939 0 10.0494 0L9.99195 3.59717Z" fill="white"/>
</g>
<defs>
<clipPath id="clip0_923_779">
<rect width="109" height="22" fill="white" transform="translate(0.523438)"/>
</clipPath>
</defs>
</svg>
