<svg width="206" height="44" viewBox="0 0 206 44" fill="none" xmlns="http://www.w3.org/2000/svg">
<g clip-path="url(#clip0_929_762)">
<path d="M85.6707 8.80004V35.2H81.0942V14.4834H81.0332L72.8567 35.2H69.8057L61.4461 14.4834H61.3851V35.2H57.1748V8.80004H63.7649L71.3312 28.3556H71.4532L79.4467 8.80004H85.6707ZM89.4538 10.8167C89.4538 10.0834 89.6979 9.47226 90.2471 8.98337C90.7962 8.49448 91.4064 8.25004 92.1387 8.25004C92.9319 8.25004 93.6031 8.49448 94.0913 8.98337C94.5794 9.47226 94.8845 10.0834 94.8845 10.8167C94.8845 11.55 94.6404 12.1611 94.0913 12.65C93.5421 13.1389 92.9319 13.3834 92.1387 13.3834C91.3454 13.3834 90.7352 13.1389 90.2471 12.65C89.7589 12.1 89.4538 11.4889 89.4538 10.8167ZM94.3964 16.2556V35.2H89.942V16.2556H94.3964ZM107.882 31.9611C108.553 31.9611 109.285 31.8389 110.078 31.4723C110.871 31.1667 111.604 30.7389 112.275 30.25V34.4056C111.543 34.8334 110.749 35.1389 109.834 35.3223C108.919 35.5056 107.943 35.6278 106.844 35.6278C104.037 35.6278 101.78 34.7723 100.071 33C98.3016 31.2278 97.4473 28.9667 97.4473 26.2778C97.4473 23.2223 98.3626 20.7167 100.132 18.7611C101.902 16.8056 104.403 15.8278 107.699 15.8278C108.553 15.8278 109.407 15.95 110.2 16.1334C111.055 16.3167 111.726 16.6223 112.214 16.8667V21.1445C111.543 20.6556 110.81 20.2278 110.139 19.9834C109.407 19.7389 108.675 19.5556 107.943 19.5556C106.173 19.5556 104.77 20.1056 103.671 21.2667C102.573 22.4278 102.085 23.9556 102.085 25.9111C102.085 27.8056 102.634 29.3334 103.671 30.3723C104.709 31.4111 106.112 31.9611 107.882 31.9611ZM124.906 15.95C125.272 15.95 125.577 15.95 125.882 16.0111C126.187 16.0723 126.431 16.1334 126.614 16.1945V20.7167C126.37 20.5334 126.065 20.35 125.577 20.2278C125.089 20.1056 124.601 19.9834 123.93 19.9834C122.831 19.9834 121.916 20.4723 121.184 21.3889C120.451 22.3056 120.024 23.7111 120.024 25.6667V35.2H115.57V16.2556H120.024V19.25H120.085C120.512 18.2111 121.123 17.4167 121.916 16.8056C122.77 16.2556 123.746 15.95 124.906 15.95ZM126.858 26.0334C126.858 22.9167 127.774 20.4111 129.482 18.5778C131.252 16.7445 133.693 15.8278 136.805 15.8278C139.733 15.8278 142.052 16.6834 143.7 18.4556C145.347 20.2278 146.201 22.6111 146.201 25.6056C146.201 28.6611 145.286 31.1056 143.578 32.9389C141.808 34.7723 139.428 35.6889 136.377 35.6889C133.449 35.6889 131.13 34.8334 129.421 33.1223C127.713 31.35 126.858 28.9667 126.858 26.0334ZM131.496 25.85C131.496 27.8056 131.923 29.3334 132.838 30.3723C133.754 31.4111 135.035 31.9611 136.683 31.9611C138.269 31.9611 139.55 31.4723 140.405 30.3723C141.259 29.3334 141.686 27.8056 141.686 25.7278C141.686 23.7111 141.259 22.1834 140.405 21.0834C139.55 20.0445 138.269 19.4945 136.744 19.4945C135.096 19.4945 133.876 20.0445 132.96 21.1445C131.923 22.3056 131.496 23.8334 131.496 25.85ZM152.853 21.2667C152.853 21.8778 153.036 22.4278 153.463 22.7945C153.89 23.1611 154.744 23.5889 156.148 24.1389C157.917 24.8723 159.199 25.6667 159.87 26.5223C160.602 27.4389 160.968 28.4778 160.968 29.7611C160.968 31.5334 160.297 32.9389 158.893 34.0389C157.551 35.1389 155.659 35.6278 153.341 35.6278C152.547 35.6278 151.693 35.5056 150.717 35.3223C149.741 35.1389 148.947 34.8945 148.276 34.5889V30.1889C149.069 30.7389 149.985 31.2278 150.9 31.5334C151.815 31.8389 152.669 32.0223 153.463 32.0223C154.439 32.0223 155.232 31.9 155.659 31.5945C156.148 31.2889 156.392 30.8611 156.392 30.1889C156.392 29.5778 156.148 29.0889 155.659 28.6C155.171 28.1723 154.195 27.6834 152.853 27.1334C151.205 26.4611 150.046 25.6667 149.374 24.8111C148.703 23.9556 148.337 22.8556 148.337 21.5111C148.337 19.8 149.008 18.3945 150.351 17.2945C151.693 16.1945 153.463 15.6445 155.598 15.6445C156.27 15.6445 157.002 15.7056 157.795 15.8889C158.588 16.0723 159.321 16.2556 159.87 16.4389V20.7778C159.26 20.4111 158.588 20.0445 157.795 19.7389C157.002 19.4334 156.209 19.3111 155.476 19.3111C154.622 19.3111 153.951 19.4945 153.524 19.8C153.097 20.2278 152.853 20.6556 152.853 21.2667ZM162.86 26.0334C162.86 22.9167 163.775 20.4111 165.483 18.5778C167.253 16.7445 169.694 15.8278 172.806 15.8278C175.735 15.8278 178.053 16.6834 179.701 18.4556C181.348 20.2278 182.203 22.6111 182.203 25.6056C182.203 28.6611 181.287 31.1056 179.579 32.9389C177.809 34.7723 175.43 35.6889 172.379 35.6889C169.45 35.6889 167.131 34.8334 165.422 33.1223C163.775 31.35 162.86 28.9667 162.86 26.0334ZM167.497 25.85C167.497 27.8056 167.924 29.3334 168.84 30.3723C169.755 31.4111 171.036 31.9611 172.684 31.9611C174.27 31.9611 175.552 31.4723 176.406 30.3723C177.26 29.3334 177.687 27.8056 177.687 25.7278C177.687 23.7111 177.26 22.1834 176.406 21.0834C175.552 20.0445 174.27 19.4945 172.745 19.4945C171.097 19.4945 169.877 20.0445 168.962 21.1445C167.985 22.3056 167.497 23.8334 167.497 25.85ZM197.03 19.9223H190.379V35.2H185.864V19.9223H182.691V16.2556H185.864V13.6278C185.864 11.6723 186.535 10.0223 187.816 8.73893C189.098 7.45559 190.745 6.84448 192.759 6.84448C193.308 6.84448 193.796 6.90559 194.223 6.90559C194.651 6.90559 195.017 7.02782 195.322 7.15004V11C195.2 10.9389 194.895 10.8167 194.528 10.6945C194.162 10.5723 193.735 10.5111 193.247 10.5111C192.332 10.5111 191.6 10.8167 191.111 11.3667C190.623 11.9167 190.379 12.8334 190.379 13.9334V16.1945H197.03V11.9167L201.485 10.5723V16.1945H206V19.8611H201.485V28.7223C201.485 29.8834 201.729 30.6778 202.095 31.1667C202.522 31.6556 203.193 31.9 204.108 31.9C204.353 31.9 204.658 31.8389 205.024 31.7167C205.39 31.5945 205.695 31.4723 205.939 31.2889V34.9556C205.634 35.1389 205.207 35.2611 204.536 35.3834C203.864 35.5056 203.254 35.5667 202.583 35.5667C200.691 35.5667 199.288 35.0778 198.373 34.1C197.457 33.1223 196.969 31.5945 196.969 29.5778L197.03 19.9223Z" fill="white"/>
<path d="M20.8685 0H0V20.9H20.8685V0Z" fill="white"/>
<path d="M43.9337 0H23.0652V20.9H43.9337V0Z" fill="white"/>
<path d="M20.8685 23.1H0V44H20.8685V23.1Z" fill="white"/>
<path d="M43.9337 23.1H23.0652V44H43.9337V23.1Z" fill="white"/>
</g>
<defs>
<clipPath id="clip0_929_762">
<rect width="206" height="44" fill="white"/>
</clipPath>
</defs>
</svg>
